<svg width="447" height="334" viewBox="0 0 447 334" fill="none" xmlns="http://www.w3.org/2000/svg">
<g clip-path="url(#clip0)">
<path opacity="0.1" d="M232.529 334C311.023 334 374.655 330.561 374.655 326.318C374.655 322.075 311.023 318.636 232.529 318.636C154.035 318.636 90.4023 322.075 90.4023 326.318C90.4023 330.561 154.035 334 232.529 334Z" fill="#F14444"/>
<path d="M313.034 296.199L311.812 297.99L304.254 309.22L297.837 311.153L293.05 306.474L293.282 303.385L294.476 287.35C294.476 287.35 264.855 269.947 262.207 266.691C259.558 263.436 249.372 260.486 249.372 260.486C249.372 260.486 233.788 253.264 227.982 240.65C222.176 228.036 237.658 226.104 237.658 226.104L295.82 281.653L313.034 296.199Z" fill="#FFC1C7"/>
<path d="M320.165 302.71L301.728 319.901C301.728 319.901 291.135 321.936 281.662 320.511C275.607 319.6 276.773 316.284 278.366 314.001L278.394 313.96C279.348 312.655 280.744 311.739 282.322 311.381C290.161 309.493 292.866 303.825 292.866 303.825L298.57 308.707L308.451 297.209L315.756 300.635L320.165 302.71Z" fill="#575988"/>
<path opacity="0.1" d="M315.756 300.643L311.417 298.608L311.824 297.99L313.047 296.199L295.82 281.653L237.658 226.112C237.658 226.112 222.176 228.036 227.982 240.65C233.788 253.264 249.372 260.486 249.372 260.486C249.372 260.486 259.558 263.436 262.207 266.691C264.855 269.946 294.496 287.341 294.496 287.341L293.302 303.377L293.245 304.142L292.866 303.821C292.866 303.821 290.161 309.489 282.322 311.377C280.743 311.734 279.348 312.651 278.394 313.956L278.366 313.997C276.736 316.276 275.607 319.592 281.662 320.507C291.135 321.931 301.728 319.897 301.728 319.897L320.165 302.706L315.756 300.643Z" fill="black"/>
<path opacity="0.1" d="M4.82819 174.957C11.9013 205.148 26.8746 231.247 50.5346 243.905C99.7164 270.199 210.625 256.637 293.396 241.057C335.223 233.213 373.189 211.537 401.18 179.522L4.82819 174.957Z" fill="#F14444"/>
<path opacity="0.1" d="M438.892 32.8446H393.475C392.456 32.8118 391.489 32.3844 390.78 31.6527C390.07 30.9211 389.674 29.9426 389.674 28.9241C389.674 27.9057 390.07 26.9272 390.78 26.1956C391.489 25.4639 392.456 25.0365 393.475 25.0037H401.326C400.286 25.0037 399.288 24.5909 398.552 23.856C397.816 23.1212 397.403 22.1245 397.403 21.0853C397.403 20.0461 397.816 19.0494 398.552 18.3146C399.288 17.5797 400.286 17.1669 401.326 17.1669H395.72C394.701 17.1341 393.734 16.7067 393.025 15.9751C392.315 15.2434 391.919 14.2649 391.919 13.2465C391.919 12.228 392.315 11.2495 393.025 10.5179C393.734 9.78625 394.701 9.35883 395.72 9.32604H419.425C414.165 6.88466 408.016 5.14722 400.931 4.23577C336.295 -4.05268 313.218 1.4282 305.077 7.08404C295.034 14.042 283.829 19.1607 271.855 21.6265C231.975 29.8417 157.393 39.7252 89.7952 18.4608C56.1979 7.88156 31.2301 25.7524 16.2608 55.6022H446.776C446.214 46.9272 444.531 38.9195 441.443 31.9047C440.732 32.5121 439.827 32.8456 438.892 32.8446Z" fill="#F14444"/>
<path opacity="0.1" d="M0.97379 111.937C-0.770653 129.496 -0.178797 147.209 2.73392 164.614L401.485 179.176C412.587 166.426 421.907 152.232 429.191 136.981L0.97379 111.937ZM158.685 149.506H150.833C151.36 149.489 151.884 149.577 152.375 149.767C152.866 149.956 153.314 150.242 153.692 150.608C154.07 150.974 154.371 151.412 154.576 151.896C154.782 152.38 154.888 152.9 154.888 153.426C154.888 153.952 154.782 154.472 154.576 154.956C154.371 155.44 154.07 155.878 153.692 156.244C153.314 156.61 152.866 156.896 152.375 157.085C151.884 157.274 151.36 157.363 150.833 157.346H105.416C104.397 157.314 103.431 156.886 102.721 156.155C102.012 155.423 101.615 154.444 101.615 153.426C101.615 152.408 102.012 151.429 102.721 150.697C103.431 149.966 104.397 149.538 105.416 149.506H113.268C112.227 149.506 111.229 149.093 110.493 148.358C109.757 147.623 109.344 146.626 109.344 145.587C109.344 144.548 109.757 143.551 110.493 142.816C111.229 142.082 112.227 141.669 113.268 141.669H107.661C106.642 141.636 105.676 141.209 104.966 140.477C104.257 139.745 103.86 138.767 103.86 137.748C103.86 136.73 104.257 135.751 104.966 135.02C105.676 134.288 106.642 133.861 107.661 133.828H153.078C154.098 133.861 155.064 134.288 155.774 135.02C156.483 135.751 156.88 136.73 156.88 137.748C156.88 138.767 156.483 139.745 155.774 140.477C155.064 141.209 154.098 141.636 153.078 141.669H158.685C159.725 141.669 160.723 142.082 161.459 142.816C162.195 143.551 162.608 144.548 162.608 145.587C162.608 146.626 162.195 147.623 161.459 148.358C160.723 149.093 159.725 149.506 158.685 149.506Z" fill="#F14444"/>
<path opacity="0.1" d="M446.796 55.8626L11.4571 66.4419C6.16043 80.0363 2.66869 95.3884 1.03894 111.335H439.169C442.029 101.977 444.144 92.4081 445.496 82.7177C446.8 73.3551 447.322 64.2976 446.796 55.8626ZM89.4203 90.5057H81.569C82.0952 90.4888 82.6194 90.5776 83.1105 90.767C83.6016 90.9564 84.0495 91.2425 84.4277 91.6082C84.8059 91.9739 85.1066 92.4118 85.312 92.8959C85.5174 93.38 85.6232 93.9004 85.6232 94.4261C85.6232 94.9519 85.5174 95.4722 85.312 95.9563C85.1066 96.4404 84.8059 96.8783 84.4277 97.244C84.0495 97.6097 83.6016 97.8958 83.1105 98.0852C82.6194 98.2746 82.0952 98.3635 81.569 98.3466H36.1519C35.1327 98.3138 34.1661 97.8863 33.4567 97.1547C32.7474 96.4231 32.3507 95.4446 32.3507 94.4261C32.3507 93.4077 32.7474 92.4292 33.4567 91.6975C34.1661 90.9659 35.1327 90.5385 36.1519 90.5057H44.0033C42.9626 90.5057 41.9647 90.0929 41.2288 89.358C40.493 88.6232 40.0796 87.6265 40.0796 86.5873C40.0796 85.5481 40.493 84.5514 41.2288 83.8166C41.9647 83.0817 42.9626 82.6689 44.0033 82.6689H38.3969C37.3777 82.6361 36.4111 82.2087 35.7017 81.477C34.9923 80.7454 34.5957 79.7669 34.5957 78.7484C34.5957 77.73 34.9923 76.7515 35.7017 76.0199C36.4111 75.2882 37.3777 74.8608 38.3969 74.828H83.814C84.8333 74.8608 85.7998 75.2882 86.5092 76.0199C87.2186 76.7515 87.6152 77.73 87.6152 78.7484C87.6152 79.7669 87.2186 80.7454 86.5092 81.477C85.7998 82.2087 84.8333 82.6361 83.814 82.6689H89.4203C90.461 82.6689 91.4589 83.0817 92.1948 83.8166C92.9306 84.5514 93.344 85.5481 93.344 86.5873C93.344 87.6265 92.9306 88.6232 92.1948 89.358C91.4589 90.0929 90.461 90.5057 89.4203 90.5057Z" fill="#F14444"/>
<g opacity="0.1">
<path opacity="0.1" d="M324.854 200.852C324.854 200.852 336.344 172.572 357.8 162.083C366.828 157.741 374.201 150.59 378.811 141.705C380.968 137.471 382.731 133.049 384.079 128.493" stroke="#535461" stroke-width="2" stroke-miterlimit="10"/>
<path opacity="0.1" d="M397.561 121.804C395.325 124.612 383.749 128.721 383.749 128.721C383.749 128.721 385.143 116.535 387.38 113.727C387.89 113 388.544 112.384 389.301 111.918C390.059 111.453 390.903 111.146 391.784 111.019C392.664 110.892 393.561 110.945 394.42 111.177C395.278 111.409 396.081 111.813 396.777 112.366C397.473 112.919 398.048 113.608 398.468 114.392C398.887 115.175 399.142 116.036 399.216 116.921C399.29 117.806 399.181 118.697 398.898 119.539C398.614 120.381 398.16 121.156 397.566 121.816L397.561 121.804Z" fill="#F14444"/>
<path opacity="0.1" d="M393.589 144.041C390.183 145.184 378.237 142.34 378.237 142.34C378.237 142.34 386.039 132.868 389.445 131.724C390.27 131.386 391.156 131.221 392.048 131.239C392.939 131.257 393.817 131.457 394.628 131.827C395.439 132.198 396.165 132.73 396.762 133.392C397.359 134.054 397.813 134.831 398.097 135.675C398.381 136.519 398.489 137.412 398.413 138.299C398.338 139.187 398.081 140.049 397.658 140.833C397.236 141.617 396.656 142.307 395.957 142.858C395.257 143.41 394.451 143.813 393.589 144.041Z" fill="#F14444"/>
<path opacity="0.1" d="M372.052 170.33C368.536 169.598 359.658 161.122 359.658 161.122C359.658 161.122 371.184 156.878 374.7 157.607C376.3 158.044 377.673 159.074 378.54 160.487C379.406 161.9 379.7 163.589 379.363 165.211C379.025 166.834 378.081 168.266 376.723 169.217C375.364 170.168 373.694 170.566 372.052 170.33Z" fill="#F14444"/>
<path opacity="0.1" d="M351.273 186.553C347.683 186.431 337.497 179.571 337.497 179.571C337.497 179.571 348.139 173.443 351.729 173.569C352.621 173.541 353.509 173.697 354.339 174.026C355.168 174.355 355.921 174.85 356.551 175.482C357.181 176.113 357.674 176.867 358 177.697C358.327 178.526 358.479 179.414 358.447 180.305C358.416 181.196 358.202 182.07 357.818 182.875C357.435 183.68 356.89 184.397 356.217 184.983C355.544 185.569 354.758 186.011 353.908 186.281C353.057 186.551 352.16 186.644 351.273 186.553Z" fill="#F14444"/>
<path opacity="0.1" d="M367.114 134.393C367.57 137.954 375.352 147.443 375.352 147.443C375.352 147.443 380.478 136.294 380.017 132.737C379.699 131.116 378.775 129.676 377.432 128.71C376.09 127.744 374.43 127.323 372.789 127.534C371.148 127.744 369.649 128.57 368.595 129.844C367.541 131.118 367.011 132.744 367.114 134.393Z" fill="#F14444"/>
<path opacity="0.1" d="M343.05 153.676C344.554 156.931 354.825 163.665 354.825 163.665C354.825 163.665 356.37 151.499 354.866 148.24C354.076 146.789 352.763 145.692 351.193 145.172C349.623 144.651 347.914 144.746 346.412 145.438C344.909 146.129 343.726 147.364 343.102 148.894C342.478 150.424 342.459 152.133 343.05 153.676Z" fill="#F14444"/>
<path opacity="0.1" d="M322.238 175.624C323.172 179.091 332.151 187.457 332.151 187.457C332.151 187.457 335.737 175.726 334.808 172.259C334.28 170.688 333.173 169.377 331.711 168.593C330.248 167.809 328.542 167.612 326.939 168.041C325.336 168.47 323.958 169.493 323.084 170.902C322.211 172.311 321.908 174 322.238 175.624Z" fill="#F14444"/>
<path opacity="0.25" d="M397.561 121.804C395.325 124.612 383.749 128.721 383.749 128.721C383.749 128.721 385.143 116.535 387.38 113.727C387.89 113 388.544 112.384 389.301 111.918C390.059 111.453 390.903 111.146 391.784 111.019C392.664 110.892 393.561 110.945 394.42 111.177C395.278 111.409 396.081 111.813 396.777 112.366C397.473 112.919 398.048 113.608 398.468 114.392C398.887 115.175 399.142 116.036 399.216 116.921C399.29 117.806 399.181 118.697 398.898 119.539C398.614 120.381 398.16 121.156 397.566 121.816L397.561 121.804Z" fill="black"/>
<path opacity="0.25" d="M393.589 144.041C390.183 145.184 378.237 142.34 378.237 142.34C378.237 142.34 386.039 132.868 389.445 131.724C390.27 131.386 391.156 131.221 392.048 131.239C392.939 131.257 393.817 131.457 394.628 131.827C395.439 132.198 396.165 132.73 396.762 133.392C397.359 134.054 397.813 134.831 398.097 135.675C398.381 136.519 398.489 137.412 398.413 138.299C398.338 139.187 398.081 140.049 397.658 140.833C397.236 141.617 396.656 142.307 395.957 142.858C395.257 143.41 394.451 143.813 393.589 144.041Z" fill="black"/>
<path opacity="0.25" d="M372.052 170.33C368.536 169.598 359.658 161.122 359.658 161.122C359.658 161.122 371.184 156.878 374.7 157.607C376.3 158.044 377.673 159.074 378.54 160.487C379.406 161.9 379.7 163.589 379.363 165.211C379.025 166.834 378.081 168.266 376.723 169.217C375.364 170.168 373.694 170.566 372.052 170.33Z" fill="black"/>
<path opacity="0.25" d="M351.273 186.553C347.683 186.431 337.497 179.571 337.497 179.571C337.497 179.571 348.139 173.443 351.729 173.569C352.621 173.541 353.509 173.697 354.339 174.026C355.168 174.355 355.921 174.85 356.551 175.482C357.181 176.113 357.674 176.867 358 177.697C358.327 178.526 358.479 179.414 358.447 180.305C358.416 181.196 358.202 182.07 357.818 182.875C357.435 183.68 356.89 184.397 356.217 184.983C355.544 185.569 354.758 186.011 353.908 186.281C353.057 186.551 352.16 186.644 351.273 186.553Z" fill="black"/>
<path opacity="0.25" d="M367.114 134.393C367.57 137.954 375.352 147.443 375.352 147.443C375.352 147.443 380.478 136.294 380.017 132.737C379.699 131.116 378.775 129.676 377.432 128.71C376.09 127.744 374.43 127.323 372.789 127.534C371.148 127.744 369.649 128.57 368.595 129.844C367.541 131.118 367.011 132.744 367.114 134.393Z" fill="black"/>
<path opacity="0.25" d="M343.05 153.676C344.554 156.931 354.825 163.665 354.825 163.665C354.825 163.665 356.37 151.499 354.866 148.24C354.076 146.789 352.763 145.692 351.193 145.172C349.623 144.651 347.914 144.746 346.412 145.438C344.909 146.129 343.726 147.364 343.102 148.894C342.478 150.424 342.459 152.133 343.05 153.676Z" fill="black"/>
<path opacity="0.25" d="M322.238 175.624C323.172 179.091 332.151 187.457 332.151 187.457C332.151 187.457 335.737 175.726 334.808 172.259C334.28 170.688 333.173 169.377 331.711 168.593C330.248 167.809 328.542 167.612 326.939 168.041C325.336 168.47 323.958 169.493 323.084 170.902C322.211 172.311 321.908 174 322.238 175.624Z" fill="black"/>
</g>
<g opacity="0.1">
<path opacity="0.1" d="M306.56 155.609C306.56 155.609 308.011 125.124 324.769 108.12C331.843 101.035 336.425 91.8482 337.827 81.9405C338.452 77.2275 338.643 72.4673 338.397 67.7195" stroke="#535461" stroke-width="2" stroke-miterlimit="10"/>
<path opacity="0.1" d="M348.905 56.9368C347.728 60.3303 338.169 68.0288 338.169 68.0288C338.169 68.0288 335.439 56.0701 336.613 52.6807C337.256 51.1575 338.455 49.9356 339.967 49.263C341.479 48.5904 343.191 48.5175 344.755 49.059C346.319 49.6005 347.618 50.7159 348.389 52.1789C349.16 53.6419 349.344 55.3429 348.905 56.9368Z" fill="#F14444"/>
<path opacity="0.1" d="M352.544 79.2347C349.692 81.4401 337.493 82.7177 337.493 82.7177C337.493 82.7177 341.71 71.1944 344.542 68.9891C345.91 68.0578 347.583 67.6817 349.219 67.9374C350.856 68.193 352.333 69.0612 353.352 70.3655C354.371 71.6698 354.854 73.3124 354.704 74.9598C354.554 76.6071 353.781 78.1356 352.544 79.2347Z" fill="#F14444"/>
<path opacity="0.1" d="M340.956 111.168C337.395 111.644 326.203 106.586 326.203 106.586C326.203 106.586 335.668 98.7657 339.241 98.2896C340.893 98.1767 342.526 98.6958 343.808 99.7416C345.091 100.787 345.927 102.281 346.147 103.92C346.367 105.559 345.954 107.22 344.992 108.566C344.03 109.912 342.592 110.843 340.968 111.168H340.956Z" fill="#F14444"/>
<path opacity="0.1" d="M326.737 133.356C323.31 134.43 311.425 131.321 311.425 131.321C311.425 131.321 319.427 122.02 322.858 120.95C323.691 120.625 324.582 120.474 325.475 120.508C326.369 120.542 327.246 120.759 328.052 121.145C328.858 121.532 329.576 122.08 330.161 122.756C330.746 123.431 331.185 124.22 331.452 125.072C331.719 125.925 331.807 126.823 331.711 127.711C331.616 128.599 331.338 129.457 330.896 130.234C330.453 131.01 329.856 131.687 329.14 132.223C328.425 132.758 327.607 133.141 326.737 133.348V133.356Z" fill="#F14444"/>
<path opacity="0.1" d="M324.361 78.9011C325.991 82.1074 336.47 88.4834 336.47 88.4834C336.47 88.4834 337.599 76.2766 335.985 73.0662C335.147 71.6413 333.797 70.5883 332.21 70.1207C330.622 69.6531 328.916 69.806 327.438 70.5482C325.959 71.2904 324.818 72.5665 324.247 74.1176C323.676 75.6688 323.717 77.3789 324.361 78.9011Z" fill="#F14444"/>
<path opacity="0.1" d="M308.064 105.064C310.565 107.64 322.487 110.59 322.487 110.59C322.487 110.59 319.908 98.5947 317.406 96.0191C316.18 94.905 314.574 94.2995 312.916 94.3259C311.258 94.3523 309.673 95.0086 308.482 96.1611C307.292 97.3137 306.586 98.876 306.508 100.53C306.43 102.184 306.987 103.805 308.064 105.064Z" fill="#F14444"/>
<path opacity="0.1" d="M295.718 132.66C297.756 135.622 309.001 140.542 309.001 140.542C309.001 140.542 308.483 128.286 306.458 125.324C305.434 124.033 303.959 123.178 302.328 122.931C300.698 122.683 299.035 123.062 297.673 123.991C296.311 124.919 295.352 126.329 294.99 127.935C294.627 129.542 294.887 131.225 295.718 132.648V132.66Z" fill="#F14444"/>
</g>
<path opacity="0.1" d="M175.61 34.7895C175.61 34.7895 165.901 34.2077 167.054 41.0028C166.995 41.3476 167.046 41.7022 167.201 42.0158C167.357 42.3293 167.607 42.5858 167.917 42.7484C167.917 42.7484 167.917 42.2438 168.911 42.4147C169.26 42.4752 169.614 42.493 169.967 42.4676C170.444 42.4346 170.897 42.2475 171.258 41.9346C171.258 41.9346 173.988 40.8075 175.047 36.352C175.047 36.352 175.834 35.3795 175.801 35.1313L174.171 35.8312C174.171 35.8312 174.73 37.0112 174.29 37.9918C174.29 37.9918 174.237 35.8719 173.923 35.9207C173.858 35.9207 173.071 36.3276 173.071 36.3276C173.071 36.3276 174.037 38.3865 173.308 39.8798C173.308 39.8798 173.585 37.3448 172.77 36.4781L171.617 37.1495C171.617 37.1495 172.741 39.2735 171.979 41.0069C171.979 41.0069 172.175 38.3499 171.376 37.3123L170.329 38.1261C170.329 38.1261 171.389 40.2216 170.737 41.6579C170.737 41.6579 170.655 38.5614 170.097 38.3295C169.702 38.6639 169.349 39.0451 169.046 39.4647C169.046 39.4647 169.767 40.9865 169.319 41.7881C169.319 41.7881 169.046 39.7252 168.818 39.717C168.818 39.717 167.905 41.0842 167.811 42.02C167.855 41.1516 168.126 40.3098 168.598 39.5787C168.072 39.6782 167.586 39.9285 167.2 40.2989C167.2 40.2989 167.343 39.3345 168.83 39.2491C168.83 39.2491 169.584 38.2115 169.783 38.1505C169.783 38.1505 168.313 38.0243 167.424 38.4231C167.424 38.4231 168.207 37.5117 170.052 37.9226L171.087 37.0844C171.087 37.0844 169.152 36.8199 168.329 37.1088C168.329 37.1088 169.274 36.295 171.364 36.8932L172.489 36.2218C171.624 36.0305 170.738 35.9539 169.853 35.9939C169.853 35.9939 170.892 35.4365 172.819 36.0387L173.634 35.6806C173.634 35.6806 172.411 35.4446 172.069 35.4039C171.727 35.3632 171.698 35.2697 171.698 35.2697C172.464 35.1422 173.249 35.2296 173.968 35.5219C173.968 35.5219 175.642 34.8994 175.61 34.7895Z" fill="#F14444"/>
<path opacity="0.1" d="M150.112 67.858C150.112 67.858 146.796 76.9928 153.645 77.8269C153.96 77.9809 154.315 78.0315 154.661 77.9716C155.006 77.9117 155.324 77.7443 155.568 77.4932C155.568 77.4932 155.087 77.3345 155.531 76.4475C155.682 76.1299 155.795 75.7952 155.865 75.4506C155.97 74.9849 155.92 74.4979 155.723 74.0631C155.723 74.0631 155.417 71.1294 151.441 68.8508C151.441 68.8508 150.728 67.8213 150.479 67.7806L150.687 69.5466C150.687 69.5466 151.978 69.3472 152.797 70.0471C152.797 70.0471 150.76 69.4977 150.703 69.8111C150.703 69.8762 150.854 70.7428 150.854 70.7428C150.854 70.7428 153.103 70.4051 154.333 71.5241C154.333 71.5241 151.978 70.5435 150.915 71.0724L151.233 72.3704C151.233 72.3704 153.592 71.8944 155.038 73.1191C155.038 73.1191 152.541 72.1751 151.318 72.6471L151.803 73.8678C151.803 73.8678 154.113 73.4609 155.311 74.4741C155.311 74.4741 152.317 73.6603 151.934 74.1445C152.142 74.6191 152.409 75.066 152.728 75.475C152.728 75.475 154.39 75.2146 155.034 75.8819C155.034 75.8819 152.977 75.5605 152.903 75.7761C152.903 75.7761 153.954 77.0375 154.826 77.4037C154.009 77.1161 153.281 76.6194 152.716 75.9633C152.666 76.4886 152.77 77.017 153.013 77.4851C153.013 77.4851 152.129 77.0782 152.467 75.6378C152.467 75.6378 151.685 74.6206 151.681 74.4171C151.681 74.4171 151.147 75.7924 151.274 76.7568C151.274 76.7568 150.622 75.7477 151.542 74.0957L151.029 72.875C151.029 72.875 150.214 74.6531 150.271 75.5198C150.271 75.5198 149.766 74.3886 150.923 72.5535L150.597 71.2881C150.172 72.0572 149.847 72.8777 149.632 73.7295C149.632 73.7295 149.391 72.5739 150.52 70.9056L150.402 70.0308C150.402 70.0308 149.831 71.1213 149.693 71.4508C149.554 71.7804 149.456 71.7682 149.456 71.7682C149.553 70.9987 149.86 70.2707 150.345 69.6646C150.345 69.6646 150.226 67.862 150.112 67.858Z" fill="#F14444"/>
<path opacity="0.1" d="M214.504 60.1635C214.504 60.1635 211.183 69.2943 218.036 70.1284C218.35 70.2826 218.705 70.3337 219.049 70.2745C219.394 70.2153 219.711 70.0488 219.955 69.7988C219.955 69.7988 219.479 69.6401 219.919 68.749C220.075 68.432 220.193 68.0973 220.269 67.7521C220.374 67.2874 220.323 66.8011 220.122 66.3687C220.122 66.3687 219.817 63.435 215.84 61.1523C215.84 61.1523 215.131 60.1228 214.883 60.0821L215.086 61.8521C215.086 61.8521 216.382 61.6487 217.197 62.3486C217.197 62.3486 215.16 61.7992 215.107 62.1166C215.107 62.1777 215.258 63.0484 215.258 63.0484C215.258 63.0484 217.507 62.7066 218.733 63.8297C218.733 63.8297 216.382 62.845 215.315 63.378L215.632 64.6719C215.632 64.6719 217.991 64.1959 219.442 65.4206C219.442 65.4206 216.944 64.4766 215.722 64.9527L216.207 66.1734C216.207 66.1734 218.517 65.7665 219.715 66.7796C219.715 66.7796 216.72 65.9658 216.337 66.446C216.546 66.9198 216.811 67.3665 217.128 67.7765C217.128 67.7765 218.794 67.5161 219.438 68.1834C219.438 68.1834 217.376 67.862 217.307 68.0736C217.307 68.0736 218.358 69.3349 219.23 69.7012C218.411 69.4118 217.682 68.9139 217.115 68.2567C217.061 68.7887 217.165 69.3249 217.413 69.7988C217.413 69.7988 216.525 69.3919 216.863 67.9474C216.863 67.9474 216.085 66.9343 216.081 66.7267C216.081 66.7267 215.543 68.098 215.673 69.0664C215.673 69.0664 215.021 68.0532 215.946 66.4053L215.429 65.1846C215.429 65.1846 214.614 66.9627 214.675 67.8335C214.675 67.8335 214.17 66.6983 215.327 64.8632L215.001 63.5977C214.574 64.3663 214.25 65.187 214.035 66.0391C214.035 66.0391 213.791 64.8876 214.919 63.2152L214.801 62.3445C214.801 62.3445 214.231 63.435 214.096 63.7605C213.962 64.086 213.86 64.0819 213.86 64.0819C213.954 63.3118 214.262 62.5832 214.748 61.9783C214.748 61.9783 214.614 60.1635 214.504 60.1635Z" fill="#F14444"/>
<path opacity="0.1" d="M109.291 48.7216C109.291 48.7216 105.97 57.8564 112.824 58.6865C113.137 58.8419 113.492 58.8937 113.837 58.8345C114.182 58.7753 114.499 58.608 114.743 58.3569C114.743 58.3569 114.266 58.1982 114.706 57.3112C114.861 56.9935 114.978 56.6589 115.056 56.3143C115.159 55.8481 115.108 55.3612 114.91 54.9268C114.91 54.9268 114.604 51.9931 110.627 49.7104C110.627 49.7104 109.919 48.685 109.67 48.6443L109.874 50.4102C109.874 50.4102 111.165 50.2109 111.984 50.9107C111.984 50.9107 109.947 50.3573 109.894 50.6747C109.894 50.7398 110.045 51.6065 110.045 51.6065C110.045 51.6065 112.294 51.2688 113.52 52.3877C113.52 52.3877 111.165 51.4031 110.102 51.9361L110.42 53.2341C110.42 53.2341 112.779 52.758 114.225 53.9828C114.225 53.9828 111.732 53.0388 110.509 53.5108L110.994 54.7315C110.994 54.7315 113.304 54.3246 114.502 55.3377C114.502 55.3377 111.503 54.5239 111.125 55.0041C111.333 55.4792 111.598 55.9274 111.915 56.3387C111.915 56.3387 113.581 56.0742 114.221 56.7456C114.221 56.7456 112.164 56.4241 112.09 56.6398C112.09 56.6398 113.145 57.8971 114.017 58.2674C113.198 57.9797 112.468 57.4815 111.903 56.8229C111.849 57.3549 111.952 57.8911 112.2 58.365C112.2 58.365 111.312 57.9581 111.65 56.5177C111.65 56.5177 110.868 55.5005 110.868 55.297C110.868 55.297 110.33 56.6723 110.46 57.6367C110.46 57.6367 109.809 56.6276 110.729 54.9756L110.216 53.7549C110.216 53.7549 109.401 55.5371 109.458 56.4038C109.458 56.4038 108.953 55.2726 110.11 53.4375L109.788 52.168C109.362 52.9366 109.037 53.7573 108.823 54.6094C108.823 54.6094 108.578 53.4579 109.707 51.7855L109.589 50.9148C109.589 50.9148 109.018 52.0053 108.884 52.3348C108.749 52.6644 108.647 52.6522 108.647 52.6522C108.741 51.8827 109.047 51.1544 109.531 50.5486C109.531 50.5486 109.417 48.7257 109.291 48.7216Z" fill="#F14444"/>
<path opacity="0.1" d="M211.297 110.684C211.297 110.684 213.86 120.042 219.939 116.787C220.284 116.732 220.604 116.57 220.851 116.323C221.098 116.076 221.261 115.757 221.316 115.412C221.316 115.412 220.835 115.554 220.68 114.574C220.625 114.225 220.528 113.885 220.391 113.56C220.207 113.121 219.885 112.753 219.474 112.511C219.474 112.511 217.531 110.293 212.955 110.716C212.955 110.716 211.782 110.285 211.554 110.395L212.744 111.721C212.744 111.721 213.681 110.814 214.752 110.907C214.752 110.907 212.76 111.636 212.911 111.917C212.939 111.973 213.571 112.592 213.571 112.592C213.571 112.592 215.2 111.021 216.863 111.229C216.863 111.229 214.373 111.782 213.807 112.828L214.817 113.707C214.817 113.707 216.472 111.957 218.358 112.124C218.358 112.124 215.775 112.791 215.05 113.882L216.158 114.61C216.158 114.61 217.788 112.938 219.373 113.084C219.373 113.084 216.468 114.159 216.423 114.757C216.868 115.025 217.344 115.238 217.841 115.391C217.841 115.391 219.063 114.22 219.951 114.386C219.951 114.386 218.085 115.306 218.15 115.526C218.15 115.526 219.735 115.933 220.656 115.737C219.821 115.973 218.939 115.986 218.097 115.774C218.359 116.239 218.751 116.618 219.226 116.864C219.226 116.864 218.264 117.039 217.71 115.668C217.71 115.668 216.488 115.29 216.362 115.119C216.362 115.119 216.716 116.547 217.38 117.263C217.38 117.263 216.264 116.816 216.064 114.936L214.944 114.24C214.944 114.24 215.31 116.156 215.852 116.84C215.852 116.84 214.785 116.205 214.671 114.041L213.673 113.194C213.772 114.072 213.984 114.934 214.304 115.758C214.304 115.758 213.44 114.944 213.4 112.938L212.797 112.295C212.797 112.295 212.96 113.516 213.041 113.861C213.123 114.207 213.041 114.268 213.041 114.268C212.673 113.585 212.502 112.813 212.548 112.039C212.548 112.039 211.391 110.619 211.297 110.684Z" fill="#F14444"/>
<path d="M332.261 163.474C333.15 164.5 334.131 165.442 335.191 166.29L343.128 173.044C344.542 174.245 345.98 175.486 347.773 176.051C348.833 176.384 349.957 176.47 351.056 176.301C352.155 176.133 353.2 175.715 354.112 175.079L353.978 175.034L354.112 174.945C352.772 174.513 351.399 174.066 350.295 173.199C349.84 172.859 349.457 172.432 349.169 171.943C348.881 171.454 348.693 170.913 348.616 170.351C348.616 170.294 348.616 170.241 348.616 170.184C348.619 170.03 348.634 169.876 348.661 169.724C350.371 169.579 352.016 169 353.44 168.044L353.302 167.995L353.44 167.909C349.211 166.554 346.281 162.591 344.953 158.396C343.625 154.201 343.621 149.733 343.478 145.343C343.336 140.953 343.01 136.44 341.111 132.469C340.398 130.98 339.481 129.564 339.135 127.952C339.04 127.474 338.995 126.987 339 126.5C339.029 124.933 339.485 123.358 339.905 121.829C340.838 118.412 341.583 114.947 342.138 111.449C342.356 110.205 342.477 108.947 342.5 107.685C342.539 106.453 342.341 105.225 341.918 104.068C340.052 99.2255 333.565 96.9428 332.575 91.8607C332.459 91.1767 332.41 90.4831 332.428 89.7896C332.428 89.4071 332.428 89.0287 332.428 88.6503C332.428 88.2719 332.428 87.8365 332.396 87.4622C332.115 83.8856 329.898 80.7809 327.759 77.8798C325.184 74.3886 322.463 70.7591 318.506 68.8996C315.434 67.447 311.327 66.9668 307.664 67.2924C306.021 65.8761 304.219 64.6541 302.294 63.6506C299.495 62.0963 296.59 60.5664 293.49 60.2246C289.558 59.7933 285.671 61.2988 281.727 61.5511C276.365 61.8969 271.101 59.9235 265.739 59.5166C260.377 59.1097 254.204 60.9122 251.809 66.3036C251.247 67.6127 250.906 69.0053 250.798 70.4254C250.774 70.6981 250.758 70.9666 250.745 71.2392V71.2677C250.705 72.3686 250.737 73.4708 250.839 74.5676V74.6938C250.839 74.9135 250.88 75.1332 250.904 75.353C250.904 75.4181 250.904 75.4791 250.925 75.5442C250.925 75.7476 250.969 75.9511 250.994 76.1545L251.018 76.3458C251.051 76.6021 251.088 76.8585 251.12 77.1148C251.182 77.6427 251.295 78.1632 251.458 78.6692C251.558 78.9615 251.704 79.2362 251.89 79.4829C252.473 80.2235 253.349 80.4432 254.253 80.5816L254.966 80.6833C254.893 80.8298 254.816 80.9762 254.746 81.1268C253.129 84.5306 252.294 88.252 252.302 92.0194C252.302 104.82 261.791 115.432 274.189 117.361L274.935 118.289C279.506 124.01 285.243 131.647 287.973 137.144C284.819 141.054 281.128 147.988 280.077 159.617L278.516 163.255C275.245 167.954 274.401 174.733 275.245 181.04C274.324 184.45 273.273 188.734 272.543 192.278C267.12 191.078 248.61 188.108 244.234 185.223L231.4 179.185C231.4 179.185 214.695 167.531 205.707 171.421C202.272 167.206 197.09 162.791 194.857 161.122C191.027 158.254 181.501 147.048 181.501 147.048L166.577 127.265C166.536 124.974 166.292 123.017 165.664 122.174C163.904 119.823 154.586 114.602 152.724 115.729C150.862 116.856 149.306 113.288 149.306 113.288L149.163 113.21C148.813 113.007 147.818 112.446 146.437 111.705C146.365 110.054 146.405 108.399 146.559 106.753C146.588 106.476 146.625 106.2 146.665 105.939C151.612 105.761 156.366 103.973 160.202 100.849C164.038 97.7243 166.748 93.4337 167.917 88.63C167.982 88.3736 168.027 88.1091 168.08 87.8487C168.748 88.0036 169.445 87.9847 170.103 87.7938C170.762 87.6028 171.36 87.2463 171.841 86.7582C173.145 85.3585 173.202 83.206 172.786 81.3506C172.371 79.4951 171.564 77.717 171.36 75.8209C171.103 73.2371 172.016 70.5312 171.177 68.0899C170.472 66.0066 168.614 64.4929 166.634 63.5042C164.654 62.5154 162.486 61.9376 160.461 61.0384C158.53 60.1839 156.733 59.0364 154.729 58.361C152.129 57.4862 149.334 57.4536 146.58 57.5187C144.852 56.8229 143.092 56.1597 141.242 55.9522C139.205 55.7203 136.964 56.1149 135.412 57.4699C134.19 58.5522 133.195 60.2897 131.537 60.3467C130.722 60.3751 129.989 59.9723 129.264 59.6264C127.206 58.6418 124.603 58.0843 122.745 59.3904C121.253 60.4321 120.707 62.3486 120.451 64.1348C120.194 65.9211 120.149 67.7969 119.286 69.396C118.752 70.3807 117.941 71.1823 117.269 72.0774C115.567 74.3498 114.765 77.1692 115.016 79.9956V80.077C114.918 79.6701 114.824 79.2917 114.755 78.8929C114.755 79.194 114.755 79.4911 114.796 79.7922C114.973 81.1881 115.277 82.5651 115.704 83.9059L117.391 89.8059C118.247 92.8006 119.123 95.8401 120.752 98.5053C121.388 99.5553 122.156 100.519 123.038 101.374C124.427 102.83 126.204 103.86 128.16 104.34C128.846 104.494 129.553 104.537 130.254 104.466C130.254 104.552 130.233 104.633 130.217 104.719C130.066 104.69 129.912 104.658 129.769 104.637C129.107 104.499 128.422 104.517 127.768 104.69C124.55 105.833 123.572 109.312 123.287 110.68C123.221 111.03 123.201 111.241 123.201 111.241C123.201 111.241 123.254 111.445 123.315 111.79L123.287 111.908C123.221 112.254 123.201 112.47 123.201 112.47C123.201 112.47 123.254 112.673 123.315 113.027L122.476 113.048L108.44 114.879C105.233 114.659 102.181 114.606 100.547 114.997C100.409 115.027 100.273 115.067 100.14 115.115C98.1028 115.819 88.7684 122.252 80.3915 128.172C80.3915 128.009 80.3915 127.851 80.3671 127.696L77.9836 129.389C77.9836 129.547 77.9836 129.714 77.9836 129.881C77.3887 130.288 76.7979 130.719 76.2275 131.13C73.6647 132.961 71.3382 134.613 69.6066 135.879C67.4961 137.392 66.1882 138.348 66.1882 138.348C66.1882 138.348 65.4141 138.601 64.9007 139.793C64.2407 141.319 64.0125 144.387 66.396 150.425C70.6415 161.171 71.5705 168.438 71.5705 168.438C70.4187 168.559 69.2882 168.832 68.2091 169.252C66.7383 169.838 65.2022 170.831 64.5626 172.507C64.1519 173.678 64.1419 174.952 64.534 176.129C66.4979 183.087 99.0074 222.596 99.0074 222.596L99.4148 222.633C101.082 222.779 102.759 222.779 104.426 222.633C105.946 222.474 107.368 222.112 108.02 221.347C108.02 221.347 115.227 230.588 125.813 224.293C125.739 232.675 125.527 238.823 126.86 241.92C128.934 246.729 128.934 257.679 128.934 257.679L130.906 257.748C130.8 258.155 130.682 258.562 130.555 258.969C129.647 261.967 128.306 265.593 126.888 266.46C124.501 267.924 125.633 293.103 125.731 295.276C125.731 295.361 125.731 295.406 125.731 295.406L125.593 305.578V306.392C125.297 305.995 125.031 305.576 124.798 305.139C124.798 305.139 120.96 308.801 120.891 316.532C120.822 324.263 120.96 324.523 120.96 324.523C120.96 324.523 136.443 323.925 139.348 324.991C142.253 326.057 166.548 324.064 166.548 324.064C166.548 324.064 167.449 321.728 164.857 319.934C168.989 319.637 173.495 318.847 176.135 316.935C181.941 312.748 164.421 309.485 163.199 308.821C161.977 308.158 155.922 302.824 153.421 300.826C152.665 300.274 151.771 299.942 150.838 299.866L151.151 290.747C154.879 286.552 158.917 263.42 158.917 263.42C160.237 262.321 160.812 259.648 161.048 258.016C161.53 257.857 161.952 257.553 162.256 257.146C162.56 256.739 162.731 256.249 162.747 255.742C167.013 255.884 172.379 255.852 173.41 254.83C175.17 253.089 174.962 247.152 174.962 247.152L172.477 184.311L172.314 184.071C172.724 181.195 172.733 178.275 172.338 175.396C177.92 176.987 182.263 178.07 182.263 178.07C182.263 178.07 190.665 179.616 196.56 180.918C195.595 181.941 194.866 183.164 194.425 184.499C189.129 199.554 219.169 198.931 219.169 198.931L233.352 205.482L266.737 216.379C256.009 213.217 243.754 209.498 235.413 206.947C234.592 206.696 233.757 206.494 232.912 206.341C225.26 204.957 217.311 207.74 212.438 213.881C212.381 213.958 212.328 214.027 212.267 214.1C211.1 215.616 210.45 217.466 210.412 219.377C210.374 221.289 210.949 223.163 212.055 224.724C213.33 226.527 215.037 228.923 217.038 231.711C212.805 232.988 205.801 236.549 210.059 245.704C215.958 258.395 231.795 265.642 231.795 265.642C231.795 265.642 242.148 268.612 244.833 271.887C245.587 272.807 248.5 274.846 252.31 277.303C254.755 279.887 256.669 281.576 257.806 281.95C262.345 283.443 271.182 290.609 277.4 295.984L276.467 308.825L276.406 309.599L276.023 309.273C276.023 309.273 273.273 314.97 265.303 316.878C263.705 317.237 262.289 318.158 261.314 319.474L261.286 319.511L261.049 319.852L260.87 319.718C259.24 322.009 258.483 325.345 264.635 326.265C274.263 327.697 285.007 325.651 285.007 325.651L294.606 316.788C295.673 317.685 296.925 318.334 298.273 318.689C305.448 320.316 325.6 328.104 325.6 328.104C325.6 325.919 343.409 297.811 343.409 297.811C367.448 252.369 341.307 218.409 338.418 214.873L338.161 214.564L337.937 210.788L337.888 209.921C337.888 209.921 350.861 204.192 345.89 201.466C340.919 198.74 338.149 185.634 333.467 180.177C329.801 175.921 330.012 166.042 329.625 157.623C330.046 159.702 330.949 161.653 332.261 163.32C332.29 163.356 332.323 163.385 332.351 163.421L332.005 163.12C332.09 163.25 332.172 163.364 332.261 163.474ZM172.411 159.983C174.082 161.778 176.999 164.072 178.93 165.529C176.616 164.402 174.815 163.45 173.426 162.681C173.1 161.778 172.758 160.874 172.411 159.983ZM122.993 117.402C122.594 118.596 121.867 119.655 120.895 120.457L120.08 116.946C121.148 117.117 122.142 117.275 122.993 117.402ZM285.838 213.881C286.16 213.189 286.494 212.509 286.832 211.846C288.261 211.382 289.521 210.507 290.454 209.331C291.164 211.793 291.69 214.303 292.027 216.843C292.027 216.961 292.027 217.026 292.027 217.026C292.009 218.05 291.855 219.066 291.567 220.049C291.192 221.237 290.507 222.356 289.264 222.49C288.747 222.543 286.201 221.929 282.391 220.891C281.287 220.59 280.073 220.252 278.777 219.886C280.81 219.752 283.638 218.609 285.838 213.881ZM317.72 128.026C316.958 126.805 315.369 126.024 313.426 125.564C313.071 125.328 312.521 124.954 311.82 124.445C308.398 121.942 301.565 116.307 298.432 109.109C299.305 108.866 300.158 108.554 300.982 108.177C302.262 107.591 303.471 106.861 304.584 106C304.959 105.707 305.326 105.402 305.676 105.085C306.574 104.276 307.393 103.384 308.121 102.42C308.41 102.013 308.691 101.626 308.936 101.199C309.335 100.573 309.697 99.9232 310.019 99.254C310.761 97.6919 311.333 96.055 311.727 94.3712C311.885 93.6958 312.024 93.0081 312.134 92.3164C312.244 91.6247 312.35 90.9289 312.427 90.229C312.68 87.7596 312.777 85.2767 312.717 82.7951C312.717 82.6771 312.717 82.555 312.717 82.437C312.717 82.3922 312.717 82.3475 312.717 82.3068C312.705 79.7911 312.432 77.2834 311.902 74.824C312.085 74.8932 312.268 74.9623 312.444 75.0437C312.738 75.1879 313.019 75.3581 313.283 75.5523C313.218 75.4587 313.144 75.3652 313.075 75.2716C314.257 76.0365 315.137 77.2287 315.927 78.4169C319.548 84.0543 321.861 90.4292 322.695 97.0746C323.53 103.72 322.866 110.468 320.751 116.824C320.156 118.569 319.443 120.307 319.285 122.142C318.71 128.697 324.989 133.698 327.323 139.858C328.493 142.946 328.676 146.368 328.831 149.754C327.071 141.18 320.637 132.741 317.732 128.042L317.72 128.026Z" fill="url(#paint0_linear)"/>
<path d="M161.977 257.646C161.977 257.646 161.671 262.732 159.736 264.36C159.736 264.36 155.763 287.349 152.097 291.52L151.485 293.86L136.206 292.131L139.262 271.786L142.114 253.069L161.977 257.646Z" fill="#FFC1C8"/>
<path opacity="0.03" d="M161.977 257.646C161.977 257.646 161.671 262.732 159.736 264.36C159.736 264.36 155.763 287.349 152.097 291.52L151.485 293.86L136.206 292.131L139.262 271.786L142.114 253.069L161.977 257.646Z" fill="black"/>
<path d="M145.512 291.805L152.097 291.516L151.746 301.867L146.706 305.241L137.628 303.255L140.941 289.421L145.512 291.805Z" fill="#FF748F"/>
<path opacity="0.03" d="M145.512 291.805L152.097 291.516L151.746 301.867L146.706 305.241L137.628 303.255L140.941 289.421L145.512 291.805Z" fill="black"/>
<path d="M146.706 301.074C146.706 301.074 151.876 299.552 154.329 301.538C156.782 303.524 162.747 308.817 163.941 309.48C165.135 310.144 182.349 313.387 176.665 317.553C170.981 321.72 156.387 320.532 156.387 320.532C156.387 320.532 146.841 317.749 146.576 317.618C146.311 317.488 140.464 314.64 140.281 314.441C140.097 314.241 141.935 301.013 141.935 301.013L146.706 301.074Z" fill="#5D618C"/>
<path opacity="0.03" d="M146.706 301.074C146.706 301.074 151.876 299.552 154.329 301.538C156.782 303.524 162.747 308.817 163.941 309.48C165.135 310.144 182.349 313.387 176.665 317.553C170.981 321.72 156.387 320.532 156.387 320.532C156.387 320.532 146.841 317.749 146.576 317.618C146.311 317.488 140.464 314.64 140.281 314.441C140.097 314.241 141.935 301.013 141.935 301.013L146.706 301.074Z" fill="black"/>
<path d="M131.725 163.552L131.419 182.464L130.726 222.808L130.319 223.162C118.198 233.639 109.641 222.551 109.641 222.551C108.998 223.312 107.604 223.674 106.105 223.829C104.465 223.976 102.815 223.976 101.175 223.829L100.768 223.792C100.768 223.792 68.7755 184.499 66.8402 177.581C66.4563 176.411 66.4663 175.148 66.8687 173.984C67.5002 172.332 69.0118 171.348 70.4582 170.766C71.5193 170.347 72.6321 170.073 73.7666 169.952C73.7666 169.952 72.8499 162.73 68.6736 152.049C66.3268 146.047 66.555 142.999 67.2028 141.469C67.708 140.285 68.4699 140.033 68.4699 140.033C68.4699 140.033 69.7574 139.085 71.8313 137.592C73.5547 136.334 75.8242 134.69 78.3503 132.872L80.693 131.195C89.3348 125.002 99.7489 117.711 101.88 116.954C102.013 116.905 102.149 116.866 102.287 116.836C106.659 115.782 121.331 117.971 121.331 117.971L131.725 163.552Z" fill="#F14444"/>
<path opacity="0.1" d="M131.725 163.552L131.419 182.464C116.926 178.196 103.452 149.912 101.676 147.683C100.156 145.746 101.717 124.176 102.291 116.844C106.663 115.79 121.335 117.979 121.335 117.979L131.725 163.552Z" fill="black"/>
<path d="M298.061 126.719C298.061 126.719 286.755 132.518 285.329 155.304C285.329 155.304 283.495 166.9 282.477 168.935C281.458 170.969 276.569 190.195 277.18 192.535C277.18 192.535 276.161 194.874 272.393 193.857C268.624 192.84 248.252 189.686 243.668 186.635L231.038 180.633C231.038 180.633 206.388 163.238 201.193 178.192C195.998 193.145 225.537 192.543 225.537 192.543L239.492 199.053L281.764 212.981C281.764 212.981 287.366 215.524 291.135 207.386C293.546 202.26 296.409 197.358 299.691 192.738C299.691 192.738 308.247 168.731 308.145 164.662C308.043 160.593 317.313 150.93 317.313 150.93C317.313 150.93 319.146 125.295 304.071 125.804L298.061 126.719Z" fill="#FFC1C7"/>
<path opacity="0.03" d="M298.061 126.719C298.061 126.719 286.755 132.518 285.329 155.304C285.329 155.304 283.495 166.9 282.477 168.935C281.458 170.969 276.569 190.195 277.18 192.535C277.18 192.535 276.161 194.874 272.393 193.857C268.624 192.84 248.252 189.686 243.668 186.635L231.038 180.633C231.038 180.633 206.388 163.238 201.193 178.192C195.998 193.145 225.537 192.543 225.537 192.543L239.492 199.053L281.764 212.981C281.764 212.981 287.366 215.524 291.135 207.386C293.546 202.26 296.409 197.358 299.691 192.738C299.691 192.738 308.247 168.731 308.145 164.662C308.043 160.593 317.313 150.93 317.313 150.93C317.313 150.93 319.146 125.295 304.071 125.804L298.061 126.719Z" fill="black"/>
<path d="M178.478 146.511C179.089 147.223 181.941 148.692 181.941 148.692C181.941 148.692 191.312 159.828 195.081 162.677C198.85 165.525 211.175 176.409 208.681 180.531C206.188 184.653 203.385 183.734 203.385 183.734L181.33 168.475C181.33 168.475 173.589 162.933 172.012 160.288C170.435 157.643 168.496 152.106 168.496 152.106L178.478 146.511Z" fill="#FFC1C8"/>
<path opacity="0.03" d="M178.478 146.511C179.089 147.223 181.941 148.692 181.941 148.692C181.941 148.692 191.312 159.828 195.081 162.677C198.85 165.525 211.175 176.409 208.681 180.531C206.188 184.653 203.385 183.734 203.385 183.734L181.33 168.475C181.33 168.475 173.589 162.933 172.012 160.288C170.435 157.643 168.496 152.106 168.496 152.106L178.478 146.511Z" fill="black"/>
<path d="M166.104 127.488L181.941 148.696L167.681 154.242L161.773 136.489L166.104 127.488Z" fill="#DCE6F2"/>
<path opacity="0.03" d="M166.104 127.488L181.941 148.696L167.681 154.242L161.773 136.489L166.104 127.488Z" fill="black"/>
<path d="M170.227 181.557L173.08 185.727L175.524 248.186C175.524 248.186 175.728 254.086 173.996 255.815C172.265 257.544 158.106 256.425 158.106 256.425C158.106 256.425 158.615 192.746 158.819 191.526C159.023 190.305 170.227 181.557 170.227 181.557Z" fill="#575988"/>
<path opacity="0.1" d="M170.227 181.557L173.08 185.727L175.524 248.186C175.524 248.186 175.728 254.086 173.996 255.815C172.265 257.544 158.106 256.425 158.106 256.425C158.106 256.425 158.615 192.746 158.819 191.526C159.023 190.305 170.227 181.557 170.227 181.557Z" fill="black"/>
<path d="M151.155 260.511C150.228 262.788 149.139 264.996 147.896 267.119C147.896 267.119 145.247 282.21 144.119 283.602C143.304 284.619 142.929 292.212 142.795 296.171C142.746 297.603 142.725 298.559 142.725 298.559L127.153 305.973L127.084 296.175C127.084 296.175 127.084 296.13 127.084 296.045C126.986 293.884 125.862 268.86 128.221 267.403C129.606 266.545 130.926 262.928 131.818 259.961C132.499 257.671 132.927 255.754 132.927 255.754C132.927 255.754 150.226 254.631 151.669 256.482C152.198 257.142 151.832 258.745 151.155 260.511Z" fill="#FFC1C8"/>
<path opacity="0.1" d="M151.155 260.511C144.139 260.364 135.347 260.067 131.794 259.941C132.474 257.65 132.902 255.734 132.902 255.734C132.902 255.734 150.202 254.611 151.644 256.462C152.198 257.142 151.832 258.745 151.155 260.511Z" fill="black"/>
<path d="M130.706 167.926C130.706 167.926 125.919 193.357 126.835 209.734C127.752 226.112 126.122 238.209 128.16 242.998C130.197 247.787 130.197 258.663 130.197 258.663C130.197 258.663 157.903 259.681 160.755 259.274C163.607 258.867 163.505 256.731 163.505 256.731C163.505 256.731 161.569 239.836 163.403 234.547C165.236 229.257 164.931 213.083 164.931 213.083L172.672 187.042C172.672 187.042 175.015 175.343 170.126 170.562C165.236 165.781 130.706 167.926 130.706 167.926Z" fill="#575988"/>
<path d="M295.107 302.303L293.885 304.093L286.327 315.324L279.91 317.256L275.122 312.577L275.355 309.489L276.548 293.453C276.548 293.453 246.928 276.05 244.279 272.795C241.631 269.54 231.445 266.59 231.445 266.59C231.445 266.59 215.861 259.367 210.055 246.754C204.249 234.14 219.731 232.207 219.731 232.207L277.893 287.756L295.107 302.303Z" fill="#FFC1C7"/>
<path opacity="0.1" d="M293.905 304.089L286.347 315.319L279.93 317.252L275.143 312.573L275.375 309.485L280.643 313.997L290.523 302.502L293.905 304.089Z" fill="black"/>
<path d="M302.237 308.813L283.801 326.005C283.801 326.005 273.207 328.039 263.735 326.615C257.68 325.703 258.845 322.387 260.438 320.105L260.467 320.064C261.421 318.758 262.816 317.842 264.395 317.484C272.234 315.596 274.939 309.928 274.939 309.928L280.643 314.811L290.524 303.312L297.829 306.738L302.237 308.813Z" fill="#575988"/>
<path d="M302.237 309.008L283.801 326.208C283.801 326.208 273.207 328.242 263.734 326.818C257.68 325.907 258.438 322.591 260.031 320.308C261.863 321.758 264.062 322.672 266.383 322.949C271.578 323.457 279.421 322.949 279.421 322.949L297.829 306.946L302.237 309.008Z" fill="white"/>
<path d="M150.027 102.957C148.527 103.705 147.839 106.017 147.562 108.653C147.093 113.153 147.851 118.573 147.851 118.573C147.851 118.573 127.479 113.011 129.655 111.925C130.906 111.302 131.57 106.769 131.908 103.038C132.161 100.279 132.234 97.9559 132.234 97.9559C132.234 97.9559 154.101 100.922 150.027 102.957Z" fill="#FFC1C8"/>
<path d="M312.187 127.643C312.187 127.643 287.468 150.97 288.283 144.191C288.397 143.247 288.071 141.941 287.427 140.399C285.141 134.898 278.822 126.357 273.88 120.111C270.253 115.53 267.361 112.181 267.361 112.181C267.361 112.181 298.061 86.4123 295.616 101.061C295.107 104.401 295.572 107.817 296.957 110.899C300.017 118.093 306.796 123.753 310.182 126.251C311.405 127.151 312.187 127.643 312.187 127.643Z" fill="#FFC1C7"/>
<path opacity="0.1" d="M292.222 105.532C291.778 106.082 290.132 108.01 289.643 108.519C284.999 113.349 284.379 120.319 277.147 120.319C276.057 120.32 274.969 120.25 273.888 120.111C270.262 115.53 267.369 112.181 267.369 112.181C267.369 112.181 298.061 86.4123 295.616 101.061C295.038 104.535 290.931 102.489 292.222 105.532Z" fill="black"/>
<path d="M302.677 94.005C302.678 99.0488 301.181 103.98 298.376 108.174C295.57 112.368 291.583 115.637 286.917 117.567C282.251 119.498 277.116 120.003 272.163 119.019C267.209 118.036 262.659 115.607 259.088 112.04C255.517 108.474 253.085 103.93 252.1 98.9829C251.114 94.036 251.62 88.9085 253.554 84.2487C255.487 79.589 258.76 75.6065 262.96 72.8048C267.159 70.0031 272.097 68.5082 277.147 68.509C280.504 68.4961 283.829 69.1467 286.933 70.4234C290.036 71.7002 292.855 73.5777 295.229 75.9478C297.602 78.3179 299.482 81.1337 300.76 84.2329C302.039 87.332 302.69 90.6532 302.677 94.005Z" fill="#FFC1C7"/>
<path opacity="0.1" d="M312.187 127.643C312.187 127.643 287.468 150.97 288.283 144.191C288.397 143.248 288.071 141.941 287.427 140.399L291 131.985C295.378 128.155 300.993 126.031 306.813 126.003C307.872 126.002 308.93 126.074 309.979 126.219L310.182 126.251C311.405 127.151 312.187 127.643 312.187 127.643Z" fill="black"/>
<path d="M341.249 298.539C341.249 298.539 323.73 326.477 323.73 328.649C323.73 328.649 303.9 320.918 296.839 319.291C289.778 317.663 283.12 302.881 283.12 302.881C283.12 302.881 264.378 285.246 257.044 282.804C250.823 280.733 220.925 238.616 212.018 225.908C210.928 224.353 210.361 222.492 210.399 220.594C210.437 218.696 211.078 216.86 212.23 215.349L212.397 215.134C214.754 212.172 217.876 209.909 221.425 208.588C224.975 207.268 228.818 206.939 232.541 207.639C233.367 207.79 234.184 207.992 234.986 208.241C247.812 212.2 270.025 219.003 281.23 222.075C284.978 223.105 287.484 223.703 287.993 223.666C289.216 223.54 289.888 222.446 290.259 221.245C290.542 220.269 290.694 219.259 290.711 218.242C290.711 218.242 290.711 218.177 290.711 218.059C290.368 215.472 289.828 212.915 289.097 210.41C287.79 205.934 285.524 200.681 281.764 198.17C278.643 196.091 276.161 191.505 274.862 186.175C273.114 178.977 273.517 170.412 277.416 164.805L281.185 155.926L287.488 141.075L291 132.798C295.378 128.969 300.993 126.845 306.813 126.817C307.872 126.816 308.93 126.888 309.979 127.033C312.68 127.407 315.015 128.217 315.988 129.812C318.975 134.695 325.767 143.646 327.124 152.598C328.48 161.55 326.855 176.198 331.471 181.626C336.087 187.054 338.805 200.07 343.694 202.784C348.583 205.498 335.818 211.191 335.818 211.191L335.867 212.049L336.087 215.805C336.087 215.805 336.177 215.907 336.34 216.11C339.184 219.626 364.881 253.378 341.249 298.539Z" fill="#FF6584"/>
<path d="M336.36 216.11C331.007 217.229 319.297 219.667 314.073 220.737L313.157 220.924C312.851 220.985 312.509 221.042 312.138 221.095C306.89 221.815 295.507 221.461 290.295 221.249C290.578 220.273 290.73 219.263 290.748 218.246C290.748 218.246 290.748 218.181 290.748 218.063C294.712 217.807 304.108 217.058 312.158 215.406C312.814 215.272 313.462 215.13 314.094 214.999C315.006 214.788 315.895 214.564 316.742 214.328C323.962 212.294 331.585 212.025 335.892 212.066L336.112 215.821C336.112 215.821 336.177 215.907 336.36 216.11Z" fill="#575988"/>
<path d="M314.053 214.983V220.737L313.136 220.924C312.831 220.985 312.488 221.042 312.118 221.095V215.423C312.774 215.272 313.421 215.13 314.053 214.983Z" fill="#FF6584"/>
<path opacity="0.1" d="M319.044 226.002C319.044 226.002 308.145 250.924 301.524 253.366C294.903 255.807 278.402 264.453 278.402 264.453C278.402 264.453 287.875 272.795 297.755 263.64C307.636 254.485 321.896 230.071 319.044 226.002Z" fill="black"/>
<path opacity="0.1" d="M330.962 222.653C330.962 222.653 331.98 232.113 330.554 233.843C329.128 235.572 330.962 222.653 330.962 222.653Z" fill="black"/>
<path opacity="0.1" d="M336.87 228.85C336.87 228.85 342.37 286.426 315.072 286.731C315.072 286.739 340.638 261.402 336.87 228.85Z" fill="black"/>
<path opacity="0.1" d="M343.796 242.685C343.796 242.685 351.639 272.897 341.351 276.355C341.351 276.363 346.75 260.698 343.796 242.685Z" fill="black"/>
<path opacity="0.1" d="M295.005 234.954C294.496 234.954 273.819 238.514 278.3 241.362C282.782 244.21 295.005 234.954 295.005 234.954Z" fill="black"/>
<path opacity="0.1" d="M309.266 194.17C309.266 194.17 326.174 209.124 322.915 210.751L309.266 194.17Z" fill="black"/>
<path opacity="0.1" d="M307.84 198.951C307.84 198.951 317.618 210.955 316.498 211.667L307.84 198.951Z" fill="black"/>
<path opacity="0.1" d="M328.721 197.112C328.721 197.112 333.203 202.707 332.49 203.928L328.721 197.112Z" fill="black"/>
<path opacity="0.1" d="M333.203 194.17C333.203 194.17 339.62 199.147 338.194 201.088L333.203 194.17Z" fill="black"/>
<path d="M297.552 133.543C297.552 133.543 318.433 135.171 317.516 151.955C316.6 168.739 301.015 173.012 301.015 173.012L280.745 167.214C280.745 167.214 289.81 134.662 297.552 133.543Z" fill="#FFC1C7"/>
<path opacity="0.1" d="M235.002 208.241C247.828 212.2 270.042 219.003 281.246 222.075C280.512 222.449 279.707 222.666 278.884 222.711C278.062 222.757 277.238 222.63 276.467 222.34L234.195 208.412L232.541 207.639C233.373 207.79 234.194 207.991 235.002 208.241Z" fill="black"/>
<path opacity="0.1" d="M306.536 166.754C304.552 169.399 302.804 172.247 302.869 174.029C302.902 175.311 302.054 178.578 300.921 182.448C298.004 192.166 294.042 201.542 289.106 210.41C287.798 205.934 285.533 200.681 281.772 198.17C278.651 196.091 276.17 191.505 274.87 186.175C275.86 182.318 276.801 179.075 277.188 178.302C278.207 176.267 280.04 164.671 280.04 164.671C280.213 161.732 280.598 158.809 281.193 155.926C282.672 148.875 285.186 144.126 287.496 141.075C290.283 137.364 292.793 136.086 292.793 136.086L298.803 135.171C305.729 134.939 309.07 140.2 310.68 145.966C312.652 153.131 311.001 160.797 306.536 166.754Z" fill="black"/>
<path d="M291.542 134.45C291.542 134.45 280.236 140.249 278.81 163.035C278.81 163.035 276.976 174.631 275.958 176.666C274.939 178.7 270.05 197.926 270.661 200.266C270.661 200.266 269.642 202.605 265.874 201.588C262.105 200.571 241.733 197.417 237.149 194.366L224.519 188.364C224.519 188.364 199.869 170.969 194.674 185.923C189.479 200.876 219.018 200.274 219.018 200.274L232.973 206.784L275.245 220.712C275.245 220.712 280.847 223.255 284.616 215.117C285.557 213.083 286.563 211.15 287.545 209.392C292.63 200.347 296.703 190.771 299.691 180.836C300.844 176.967 301.671 173.7 301.639 172.418C301.594 170.636 303.346 167.783 305.305 165.143C309.787 159.186 311.417 151.52 309.421 144.35C307.811 138.584 304.454 133.323 297.544 133.559L291.542 134.45Z" fill="#FFC1C7"/>
<path opacity="0.1" d="M150.027 102.957C148.527 103.705 147.839 106.017 147.562 108.653C147.297 108.653 147.032 108.653 146.767 108.653C141.289 108.664 136 106.659 131.908 103.022C132.161 100.263 132.234 97.9397 132.234 97.9397C132.234 97.9397 154.101 100.922 150.027 102.957Z" fill="black"/>
<path d="M169.176 85.4602C169.176 89.8864 167.862 94.2132 165.4 97.8934C162.937 101.574 159.438 104.442 155.343 106.136C151.248 107.83 146.742 108.273 142.395 107.409C138.049 106.546 134.056 104.415 130.922 101.285C127.788 98.1549 125.653 94.1673 124.789 89.8262C123.924 85.485 124.368 80.9853 126.064 76.896C127.76 72.8068 130.632 69.3116 134.317 66.8525C138.003 64.3935 142.335 63.081 146.767 63.081C152.707 63.0939 158.399 65.4558 162.599 69.6499C166.798 73.8441 169.163 79.5288 169.176 85.4602Z" fill="#FFC1C8"/>
<path opacity="0.1" d="M176.746 173.105C176.746 173.105 165.033 177.785 161.366 179.412C157.699 181.04 136.716 177.276 136.716 177.276C136.716 177.276 125.817 171.783 126.733 166.29C127.65 160.797 117.974 142.8 117.974 142.8C117.974 142.8 117.668 126.829 121.946 123.778C126.224 120.726 124.594 114.317 124.594 114.317C124.594 114.317 124.615 114.106 124.68 113.76C124.945 112.401 125.902 108.942 129.076 107.807C129.719 107.634 130.393 107.616 131.044 107.754C134.088 108.214 139.087 110.476 143.223 112.563C146.645 114.293 149.477 115.9 150.125 116.274L150.263 116.352C150.263 116.352 151.791 119.912 153.624 118.793C155.458 117.674 164.625 122.862 166.357 125.202C168.088 127.541 166.866 138.527 166.561 141.274C166.255 144.021 168.292 152.158 170.533 156.83C172.774 161.501 176.746 173.105 176.746 173.105Z" fill="black"/>
<path d="M176.746 171.885C176.746 171.885 165.033 176.564 161.366 178.192C157.699 179.819 136.716 176.055 136.716 176.055C136.716 176.055 125.817 170.562 126.733 165.069C127.65 159.576 117.974 141.579 117.974 141.579C117.974 141.579 117.668 125.609 121.946 122.557C126.224 119.505 124.594 113.097 124.594 113.097C124.594 113.097 124.615 112.885 124.68 112.539C124.945 111.18 125.902 107.721 129.076 106.586C129.719 106.414 130.393 106.396 131.044 106.533C134.088 106.993 139.087 109.255 143.223 111.343C146.645 113.072 149.477 114.679 150.125 115.054L150.263 115.131C150.263 115.131 151.791 118.691 153.624 117.572C155.458 116.453 164.625 121.641 166.357 123.981C168.088 126.321 166.866 137.307 166.561 140.053C166.255 142.8 168.292 150.938 170.533 155.609C172.774 160.28 176.746 171.885 176.746 171.885Z" fill="#DCE6F2"/>
<path d="M138.822 156.26C138.822 156.26 128.771 172.536 127.141 173.419L127.752 179.115C127.752 179.115 142.082 176.129 142.966 172.129C143.85 168.129 143.373 156.057 143.373 156.057L138.822 156.26Z" fill="#575988"/>
<path opacity="0.2" d="M138.822 156.26C138.822 156.26 128.771 172.536 127.141 173.419L127.752 179.115C127.752 179.115 142.082 176.129 142.966 172.129C143.85 168.129 143.373 156.057 143.373 156.057L138.822 156.26Z" fill="black"/>
<path opacity="0.1" d="M152.964 135.525C152.964 135.525 154.745 142.393 157.548 144.733C160.351 147.072 152.964 135.525 152.964 135.525Z" fill="black"/>
<path d="M135.493 153.631C135.75 154.091 144.355 165.79 153.421 170.111C162.486 174.432 182.707 179.522 182.707 179.522C182.707 179.522 199.107 182.574 201.906 183.742C204.705 184.91 208.274 179.673 190.701 172.198C173.128 164.723 169.718 161.415 169.718 161.415C169.718 161.415 154.439 153.981 151.995 150.319C149.55 146.657 135.493 153.631 135.493 153.631Z" fill="#FFC1C8"/>
<path opacity="0.1" d="M141.911 210.54C142.216 210.336 149.55 202.504 150.467 205.861C151.384 209.217 141.911 210.54 141.911 210.54Z" fill="black"/>
<path opacity="0.1" d="M146.189 195.078C146.087 195.383 145.068 204.03 142.114 205.047L146.189 195.078Z" fill="black"/>
<path opacity="0.1" d="M149.244 197.426C149.244 197.426 146.596 206.682 143.235 207.285L149.244 197.426Z" fill="black"/>
<path opacity="0.1" d="M135.799 225.188C135.799 225.188 140.281 225.29 140.892 222.442L135.799 225.188Z" fill="black"/>
<path opacity="0.1" d="M141.911 243.71C142.522 243.812 152.097 249.915 149.652 251.136C147.207 252.357 141.911 243.71 141.911 243.71Z" fill="black"/>
<path opacity="0.1" d="M142.778 295.231V296.171C142.73 297.603 142.709 298.559 142.709 298.559L127.137 305.973L127.068 296.175C127.068 296.175 127.068 296.13 127.068 296.045V295.382L133.301 295.581L142.778 295.231Z" fill="black"/>
<path d="M145.692 309.476L132.703 314.441L126.872 310.998L126.933 306.286L127.068 296.171L133.301 296.37L142.778 296.041V303.125L145.692 309.476Z" fill="#FF748F"/>
<path opacity="0.1" d="M145.679 309.48L132.69 314.445L126.86 311.002L126.921 306.29C127.767 307.398 128.848 308.304 130.086 308.944C131.325 309.584 132.69 309.943 134.084 309.993C134.084 309.993 138.655 304.297 141.438 302.645C141.636 302.526 141.855 302.45 142.084 302.419C142.312 302.388 142.544 302.404 142.766 302.466V303.129L145.679 309.48Z" fill="black"/>
<path d="M134.096 310.803C134.096 310.803 128.799 310.872 126.143 305.839C126.143 305.839 122.366 309.481 122.296 317.159C122.227 324.837 122.366 325.101 122.366 325.101C122.366 325.101 137.608 324.507 140.46 325.565C143.312 326.623 167.237 324.637 167.237 324.637C167.237 324.637 168.826 320.467 161.602 319.01C154.378 317.553 148.413 309.875 148.214 309.546C148.014 309.216 144.237 301.815 141.454 303.442C138.671 305.07 134.096 310.803 134.096 310.803Z" fill="#5D618C"/>
<path opacity="0.1" d="M148.144 60.7373L146.625 60.5298L147.574 60.5053L148.144 60.7373Z" fill="black"/>
<path opacity="0.1" d="M169.176 85.4602C169.177 87.196 168.976 88.926 168.577 90.6156C168.237 90.5279 167.912 90.3908 167.612 90.2087C167.176 89.9279 166.74 89.5414 166.226 89.5861C165.925 89.6334 165.643 89.7629 165.412 89.9605C163 91.7223 161.207 94.6194 158.273 95.1809C158.567 94.3234 158.607 93.3993 158.387 92.5198C157.765 93.1446 157.002 93.6111 156.162 93.8802C155.322 94.1492 154.429 94.213 153.559 94.066C153.771 93.558 153.796 92.9913 153.629 92.4669C151.563 93.6224 149.412 94.6194 147.195 95.4495C147.118 95.0426 147.044 94.6682 146.967 94.2776C143.846 95.7994 144.09 100.963 140.969 102.485C139.112 103.392 136.488 102.741 135.204 104.377C135.155 104.442 135.11 104.507 135.066 104.576C131.731 102.539 128.988 99.6659 127.109 96.2424C125.229 92.8189 124.28 88.964 124.354 85.0606C124.428 81.1572 125.524 77.3411 127.532 73.9913C129.539 70.6415 132.39 67.8745 135.8 65.9651C139.21 64.0558 143.06 63.0705 146.969 63.1071C150.879 63.1438 154.71 64.201 158.083 66.174C161.457 68.1469 164.255 70.9668 166.199 74.3536C168.144 77.7405 169.167 81.5765 169.168 85.4805L169.176 85.4602Z" fill="black"/>
<path d="M148.144 59.9194C146.262 59.1422 144.351 58.361 142.326 58.129C140.301 57.8971 138.117 58.2918 136.589 59.6386C135.367 60.7128 134.41 62.4381 132.78 62.4869C131.985 62.5154 131.252 62.1166 130.539 61.7707C128.502 60.7942 125.955 60.2408 124.118 61.5347C122.651 62.5723 122.101 64.4766 121.861 66.2547C121.62 68.0329 121.563 69.9168 120.716 71.4833C120.19 72.4599 119.391 73.2574 118.731 74.1485C117.054 76.4126 116.265 79.2123 116.515 82.0179C116.685 83.4052 116.982 84.7741 117.403 86.1072L119.066 91.9705C119.909 94.949 120.769 97.9682 122.374 100.617C123.979 103.266 126.448 105.545 129.463 106.228C131.281 106.635 133.481 106.301 134.499 104.743C134.76 104.336 134.927 103.901 135.212 103.522C136.475 101.895 139.12 102.542 140.978 101.634C144.099 100.112 143.854 94.949 146.975 93.4272L147.207 94.595C149.422 93.7638 151.571 92.7682 153.637 91.6165C153.803 92.1407 153.78 92.7067 153.571 93.2156C154.441 93.3605 155.332 93.2958 156.171 93.0268C157.01 92.7578 157.773 92.2924 158.396 91.6694C158.615 92.5489 158.575 93.473 158.281 94.3305C161.215 93.7649 163.008 90.8678 165.42 89.106C165.653 88.9113 165.934 88.7834 166.235 88.7357C166.752 88.6909 167.184 89.0775 167.62 89.3542C168.375 89.812 169.263 90.0005 170.139 89.8889C171.016 89.7773 171.828 89.3722 172.444 88.7398C173.727 87.3482 173.784 85.2079 173.373 83.3606C172.961 81.5133 172.151 79.7514 171.975 77.8675C171.719 75.3 172.615 72.6186 171.792 70.1772C171.095 68.1061 169.27 66.6047 167.31 65.62C165.35 64.6353 163.236 64.0616 161.235 63.1786C159.337 62.3282 157.568 61.1889 155.596 60.5175C152.744 59.545 149.644 59.6223 146.633 59.7037" fill="#794F6A"/>
<path d="M148.531 135.712C148.531 135.712 151.791 113.809 123.881 114.891L109.825 116.759C109.825 116.759 123.234 119.167 126.461 119.521L126.803 119.57C129.789 120.116 140.114 119.436 148.531 135.712Z" fill="#F14444"/>
<path opacity="0.1" d="M130.706 223.06V222.808C142.151 212.924 130.706 223.06 130.706 223.06Z" fill="black"/>
<path d="M106.085 223.829C104.445 223.976 102.795 223.976 101.155 223.829L66.8687 173.993C67.5002 172.341 69.0118 171.356 70.4582 170.774L106.085 223.829Z" fill="#575988"/>
<path d="M83.8507 170.469L82.2209 172.402C82.2209 172.402 69.8593 151.894 67.2028 141.477C67.708 140.293 68.4699 140.041 68.4699 140.041C68.4699 140.041 69.7574 139.093 71.8313 137.6C72.6013 142.499 75.2293 154.478 83.8507 170.469Z" fill="#575988"/>
<path d="M92.9162 164.154L89.6567 165.985C80.7582 155.585 80.0004 138.112 80.0819 131.15L82.4287 129.466C82.7465 138.609 92.9162 164.154 92.9162 164.154Z" fill="#575988"/>
<path opacity="0.1" d="M101.472 162.331C101.371 163.653 97.6017 177.081 103.102 179.319C108.603 181.557 101.472 162.331 101.472 162.331Z" fill="black"/>
<path opacity="0.1" d="M113.288 185.422C113.492 186.134 115.325 209.327 119.298 207.496C123.27 205.665 121.131 179.217 121.131 179.217L113.288 185.422Z" fill="black"/>
<path opacity="0.1" d="M302.677 94.0051C302.686 100.591 300.132 106.923 295.555 111.664C293.691 112.059 291.769 112.092 289.892 111.762C288.933 111.641 288.021 111.275 287.244 110.7C286.496 110.011 285.91 109.164 285.528 108.222C284.041 105.028 283.279 101.337 281.193 98.603C279.107 95.8686 274.874 94.6683 272.861 97.4718C271.765 98.9936 271.582 101.333 270.119 102.387C268.363 103.657 266.045 102.163 264.68 100.353C260.646 95.063 262.027 84.6627 254.335 83.202L254.025 83.1491C256.492 77.8963 260.679 73.6406 265.894 71.0846C271.109 68.5285 277.041 67.825 282.711 69.0901C288.381 70.3552 293.449 73.5133 297.079 78.043C300.709 82.5728 302.684 88.2033 302.677 94.0051Z" fill="black"/>
<path d="M254.742 82.8236C253.496 82.5835 252.049 82.6161 251.214 81.5418C250.721 80.9071 250.578 80.0282 250.46 79.1941C249.959 75.589 249.686 71.7194 251.124 68.452C253.483 63.0932 259.554 61.3029 264.831 61.7016C270.107 62.1004 275.285 64.0657 280.562 63.7361C284.44 63.4838 288.266 61.9865 292.133 62.4137C295.193 62.7555 298.045 64.2732 300.795 65.8235C303.37 67.272 306.002 68.8304 307.827 71.3451C310.508 75.0275 311.014 80.1136 311.087 84.8865C311.177 90.4895 310.781 96.3081 308.426 101.24C305.012 108.397 297.397 112.657 290.299 111.375C289.34 111.254 288.428 110.888 287.651 110.313C286.905 109.623 286.321 108.777 285.94 107.835C284.449 104.637 283.687 100.951 281.601 98.2123C279.515 95.4739 275.281 94.2817 273.269 97.0853C272.173 98.603 271.989 100.947 270.526 102.001C268.77 103.266 266.452 101.773 265.087 99.9661C261.054 94.6724 262.435 84.2803 254.742 82.8236Z" fill="#945B79"/>
<path d="M316.746 70.9951C320.629 72.8465 323.322 76.4516 325.852 79.9224C327.959 82.8073 330.139 85.8915 330.416 89.4478C330.526 90.9045 330.31 92.3856 330.587 93.8179C331.561 98.8756 337.921 101.142 339.779 105.96C340.642 108.23 340.369 110.757 339.991 113.158C339.446 116.63 338.713 120.071 337.794 123.464C337.244 125.499 336.621 127.615 337.041 129.682C337.363 131.285 338.263 132.693 338.98 134.157C340.85 138.108 341.172 142.588 341.315 146.954C341.457 151.32 341.453 155.764 342.761 159.93C344.069 164.097 346.954 168.036 351.114 169.382C349.716 170.334 348.097 170.908 346.412 171.051C346.163 172.414 346.941 173.801 348.042 174.664C349.142 175.527 350.486 175.974 351.798 176.401C350.903 177.032 349.873 177.447 348.79 177.614C347.707 177.781 346.6 177.694 345.556 177.362C343.816 176.792 342.378 175.571 340.989 174.375L333.178 167.665C332.135 166.822 331.17 165.885 330.298 164.866C325.245 158.596 328.26 149.095 325.441 141.563C323.143 135.439 316.966 130.467 317.533 123.953C317.687 122.13 318.388 120.404 318.975 118.663C321.056 112.345 321.709 105.644 320.889 99.0438C320.068 92.4432 317.793 86.1061 314.228 80.488C313.336 79.1045 312.301 77.7129 310.814 77.0009C308.553 75.9226 305.322 76.3865 304.038 74.234C303.358 73.0988 303.223 71.1009 303.162 69.8273C307.31 68.8792 312.867 69.1437 316.746 70.9951Z" fill="#945B79"/>
<path opacity="0.1" d="M118.328 139.887C120.235 127.37 135.901 122.85 144.217 132.416C146.621 135.191 148.752 138.23 149.958 141.27C154.032 151.544 154.337 152.46 154.337 152.46C154.337 152.46 129.178 157.342 129.382 161.004L117.974 142.796C117.974 142.796 118.059 141.657 118.328 139.887Z" fill="black"/>
<path d="M118.328 138.666C120.235 126.15 135.901 121.629 144.217 131.195C146.621 133.97 148.752 137.01 149.958 140.049C154.032 150.323 154.337 151.239 154.337 151.239C154.337 151.239 129.178 156.122 129.382 159.784L117.974 141.575C117.974 141.575 118.059 140.436 118.328 138.666Z" fill="#DCE6F2"/>
<path opacity="0.1" d="M125.409 122.606C125.715 123.114 137.734 137.763 144.05 139.85C150.365 141.937 125.409 122.606 125.409 122.606Z" fill="black"/>
<path opacity="0.1" d="M73.7666 169.96C73.7666 169.96 105.547 207.395 109.621 222.551L73.7666 169.96Z" fill="black"/>
<path opacity="0.1" d="M74.9889 135.374C74.9889 135.374 81.9153 171.181 95.3608 186.236C108.806 201.291 122.659 226.926 122.659 226.926" stroke="black" stroke-width="2" stroke-miterlimit="10"/>
<g opacity="0.1">
<path opacity="0.1" d="M173.185 83.2793C173.213 84.4694 172.801 85.6279 172.028 86.5344C171.413 87.1669 170.6 87.572 169.724 87.6836C168.848 87.7952 167.959 87.6067 167.204 87.1488C166.768 86.8721 166.336 86.4856 165.819 86.5304C165.519 86.578 165.237 86.706 165.004 86.9006C162.71 88.577 160.975 91.2788 158.281 92.0234C158.377 92.7423 158.304 93.4734 158.07 94.1596C161.003 93.5941 162.796 90.697 165.208 88.9351C165.441 88.7405 165.723 88.6125 166.023 88.5648C166.54 88.5201 166.972 88.9066 167.408 89.1833C168.163 89.6411 169.051 89.8297 169.928 89.7181C170.804 89.6065 171.616 89.2013 172.232 88.5689C173.491 87.1855 173.568 85.1022 173.185 83.2793Z" fill="black"/>
<path opacity="0.1" d="M171.56 75.6459C171.592 75.9795 171.649 76.3091 171.715 76.6387C171.715 74.6042 172.199 72.4884 171.715 70.5353C171.723 72.1954 171.389 73.9532 171.56 75.6459Z" fill="black"/>
<path opacity="0.1" d="M157.988 89.4478C157.366 90.0708 156.603 90.5362 155.764 90.8052C154.925 91.0741 154.033 91.1389 153.164 90.994C153.373 90.485 153.396 89.9191 153.229 89.3949C151.163 90.5465 149.014 91.5421 146.8 92.3734L146.568 91.2056C143.447 92.7274 143.691 97.8909 140.57 99.4127C138.712 100.32 136.088 99.6649 134.805 101.301C134.52 101.671 134.353 102.114 134.092 102.521C133.073 104.08 130.873 104.417 129.056 104.006C126.033 103.323 123.568 101.044 121.966 98.3954C120.365 95.7465 119.501 92.7274 118.658 89.7489L116.996 83.8855C116.723 82.909 116.446 81.9324 116.266 80.9355C116.266 81.2366 116.266 81.5337 116.311 81.8307C116.481 83.2181 116.779 84.5869 117.199 85.92L118.862 91.7834C119.705 94.7618 120.565 97.781 122.17 100.43C123.775 103.079 126.245 105.357 129.26 106.041C131.077 106.448 133.277 106.114 134.296 104.556C134.556 104.149 134.723 103.714 135.009 103.335C136.272 101.708 138.916 102.355 140.774 101.447C143.895 99.9253 143.65 94.7618 146.771 93.24L147.004 94.4078C149.214 93.5761 151.359 92.5805 153.421 91.4294C153.587 91.9536 153.564 92.5195 153.355 93.0285C154.182 93.1651 155.029 93.1123 155.832 92.874C156.636 92.6358 157.374 92.2183 157.992 91.6532C158.166 90.9281 158.165 90.1722 157.988 89.4478Z" fill="black"/>
</g>
<path opacity="0.1" d="M150.125 116.274C147.933 117.536 142.84 120.343 141.809 119.863C140.709 119.355 128.706 115.159 124.696 113.76C124.961 112.401 125.919 108.942 129.093 107.807C129.735 107.634 130.41 107.616 131.061 107.754L143.235 112.564C146.645 114.293 149.477 115.9 150.125 116.274Z" fill="black"/>
<path d="M150.125 115.054C147.933 116.315 142.84 119.123 141.809 118.643C140.709 118.134 128.706 113.939 124.696 112.539C124.961 111.18 125.919 107.721 129.093 106.586C129.735 106.414 130.41 106.396 131.061 106.533L143.235 111.343C146.645 113.072 149.477 114.679 150.125 115.054Z" fill="#DCE6F2"/>
<path opacity="0.1" d="M311.099 84.4023C310.981 88.988 310.358 93.5737 308.447 97.5816C305.032 104.739 297.417 108.999 290.32 107.717C289.36 107.596 288.448 107.23 287.671 106.655C286.926 105.965 286.341 105.119 285.96 104.177C284.469 100.979 283.707 97.2927 281.621 94.5543C279.535 91.8159 275.302 90.6237 273.289 93.4272C272.193 94.9449 272.009 97.2886 270.547 98.3425C268.791 99.608 266.472 98.1146 265.107 96.308C261.074 91.0184 262.455 80.6141 254.763 79.1574C253.516 78.9173 252.069 78.9499 251.234 77.8757C250.741 77.2409 250.599 76.362 250.48 75.5279C250.342 74.5473 250.224 73.5463 250.154 72.5413C250.013 74.7627 250.122 76.993 250.48 79.1899C250.599 80.0241 250.741 80.903 251.234 81.5377C252.069 82.6119 253.516 82.5794 254.763 82.8194C262.455 84.2761 261.074 94.6682 265.107 99.9701C266.468 101.756 268.774 103.25 270.547 102.005C272.009 100.951 272.177 98.607 273.289 97.0893C275.302 94.2858 279.535 95.482 281.621 98.2164C283.707 100.951 284.473 104.641 285.96 107.839C286.341 108.781 286.926 109.627 287.671 110.317C288.448 110.892 289.36 111.258 290.32 111.379C297.417 112.661 305.032 108.401 308.447 101.244C310.802 96.3121 311.197 90.4935 311.107 84.8905C311.099 84.7115 311.099 84.5488 311.099 84.4023Z" fill="black"/>
<g opacity="0.1">
<path opacity="0.1" d="M337.741 103.933C338.605 106.204 338.332 108.731 337.953 111.131C337.408 114.601 336.675 118.039 335.757 121.43C335.207 123.464 334.584 125.58 335.003 127.647C335.325 129.25 336.226 130.658 336.943 132.123C338.813 136.074 339.135 140.554 339.277 144.92C339.42 149.286 339.416 153.729 340.724 157.896C341.571 160.735 343.19 163.285 345.401 165.26C344.233 163.698 343.34 161.947 342.761 160.085C341.453 155.918 341.453 151.475 341.315 147.109C341.176 142.743 340.85 138.263 338.98 134.316C338.279 132.839 337.35 131.431 337.041 129.84C336.633 127.773 337.244 125.653 337.794 123.619C338.714 120.219 339.447 116.771 339.991 113.292C340.369 110.891 340.642 108.36 339.779 106.09C339.082 104.271 337.741 102.835 336.287 101.439C336.896 102.192 337.387 103.033 337.741 103.933Z" fill="black"/>
<path opacity="0.1" d="M351.114 169.545C350.025 169.185 349.001 168.652 348.082 167.966C346.929 168.565 345.669 168.93 344.375 169.041C344.126 170.404 344.904 171.791 346.004 172.654C346.223 172.829 346.455 172.989 346.697 173.13C346.413 172.533 346.318 171.865 346.424 171.213C348.104 171.065 349.718 170.491 351.114 169.545Z" fill="black"/>
<path opacity="0.1" d="M308.765 74.9989C307.212 74.2584 305.204 74.2421 303.68 73.6114C303.766 73.8942 303.882 74.167 304.026 74.4252C305.309 76.5736 308.54 76.1097 310.802 77.1921C311.087 77.3352 311.36 77.5026 311.617 77.6926C310.91 76.5678 309.928 75.6408 308.765 74.9989Z" fill="black"/>
<path opacity="0.1" d="M348.433 175.14C346.872 175.805 345.123 175.887 343.507 175.372C341.767 174.802 340.329 173.582 338.939 172.385L331.129 165.676C330.758 165.358 330.391 165.037 330.033 164.711C330.114 164.821 330.196 164.935 330.285 165.045C331.157 166.065 332.121 167.002 333.166 167.844L340.977 174.558C342.366 175.75 343.804 176.975 345.544 177.545C346.588 177.877 347.695 177.962 348.778 177.795C349.861 177.628 350.891 177.212 351.786 176.58C350.607 176.258 349.478 175.773 348.433 175.14Z" fill="black"/>
<path opacity="0.1" d="M323.815 77.8919C325.922 80.7768 328.102 83.8611 328.379 87.4173C328.489 88.874 328.273 90.3551 328.55 91.7874C328.99 94.0782 330.542 95.7994 332.278 97.4392C331.439 96.4342 330.859 95.24 330.587 93.9602C330.31 92.5239 330.526 91.0428 330.416 89.5861C330.139 86.0298 327.971 82.9455 325.853 80.0647C324.321 77.9611 322.723 75.8127 320.845 74.0305C321.892 75.2674 322.866 76.5858 323.815 77.8919Z" fill="black"/>
</g>
<path opacity="0.1" d="M305.941 69.4571C305.941 69.4571 303.496 73.526 310.423 76.9155L310.83 75.829L305.941 69.4571Z" fill="black"/>
<path d="M305.534 69.4571C305.534 69.4571 303.089 73.526 310.015 76.9155L310.423 75.829L305.534 69.4571Z" fill="#FF6584"/>
<path d="M401.978 299.756C401.978 299.756 404.219 302.681 400.947 307.08C397.676 311.478 394.978 315.218 396.058 317.972C396.058 317.972 400.996 309.773 405.022 309.659C409.047 309.546 406.399 304.687 401.978 299.756Z" fill="#F14444"/>
<path opacity="0.1" d="M401.978 299.756C402.174 300.038 402.329 300.346 402.439 300.671C406.358 305.273 408.444 309.566 404.675 309.672C401.167 309.773 396.959 316.04 395.948 317.622C395.981 317.744 396.021 317.862 396.066 317.985C396.066 317.985 401.004 309.786 405.03 309.672C409.055 309.558 406.399 304.687 401.978 299.756Z" fill="black"/>
<path d="M406.142 303.483C406.142 304.512 406.024 305.346 405.881 305.346C405.739 305.346 405.625 304.533 405.625 303.483C405.625 302.433 405.767 302.938 405.91 302.938C406.052 302.938 406.142 302.453 406.142 303.483Z" fill="#FFD037"/>
<path d="M407.568 304.712C406.664 305.204 405.873 305.501 405.808 305.375C405.743 305.249 406.415 304.748 407.32 304.256C408.224 303.764 407.87 304.122 407.939 304.256C408.008 304.39 408.477 304.219 407.568 304.712Z" fill="#FFD037"/>
<path d="M390.142 299.756C390.142 299.756 387.901 302.681 391.173 307.08C394.445 311.478 397.142 315.218 396.062 317.972C396.062 317.972 391.128 309.773 387.099 309.659C383.069 309.546 385.738 304.687 390.142 299.756Z" fill="#F14444"/>
<path opacity="0.1" d="M390.142 299.756C389.947 300.038 389.792 300.346 389.682 300.671C385.762 305.273 383.676 309.566 387.445 309.672C390.953 309.773 395.162 316.04 396.172 317.622C396.139 317.745 396.098 317.866 396.05 317.985C396.05 317.985 391.116 309.786 387.086 309.672C383.057 309.558 385.738 304.687 390.142 299.756Z" fill="black"/>
<path d="M385.994 303.483C385.994 304.512 386.113 305.346 386.255 305.346C386.398 305.346 386.512 304.533 386.512 303.483C386.512 302.433 386.369 302.938 386.227 302.938C386.084 302.938 385.994 302.453 385.994 303.483Z" fill="#FFD037"/>
<path d="M384.568 304.712C385.473 305.204 386.259 305.501 386.328 305.375C386.398 305.249 385.721 304.748 384.817 304.256C383.912 303.764 384.267 304.122 384.198 304.256C384.128 304.39 383.664 304.219 384.568 304.712Z" fill="#FFD037"/>
<path d="M386.707 317.602C386.707 317.602 392.966 317.407 394.856 316.068C396.747 314.729 404.484 313.122 404.952 315.254C405.421 317.386 414.356 325.952 407.291 326.009C400.226 326.066 390.875 324.91 388.993 323.767C387.111 322.623 386.707 317.602 386.707 317.602Z" fill="#A8A8A8"/>
<path opacity="0.2" d="M407.413 325.284C400.348 325.341 390.998 324.186 389.115 323.042C387.681 322.167 387.111 319.038 386.919 317.598H386.707C386.707 317.598 387.115 322.64 388.989 323.787C390.863 324.934 400.222 326.086 407.287 326.029C409.324 326.029 410.029 325.288 409.992 324.214C409.699 324.877 408.929 325.284 407.413 325.284Z" fill="black"/>
<path d="M107.009 310.429C107.758 309.821 108.303 309.001 108.574 308.077C108.774 307.141 108.374 306.018 107.482 305.676C106.48 305.294 105.408 305.989 104.597 306.689C103.787 307.389 102.854 308.191 101.79 308.04C102.337 307.546 102.746 306.918 102.978 306.218C103.209 305.519 103.255 304.771 103.11 304.048C103.064 303.749 102.937 303.468 102.744 303.235C102.189 302.641 101.179 302.897 100.511 303.365C98.3922 304.85 97.8014 307.727 97.7932 310.311C97.5773 309.379 97.7565 308.406 97.7525 307.462C97.7484 306.518 97.4836 305.428 96.6768 304.931C96.1785 304.656 95.6166 304.516 95.0471 304.525C94.0937 304.488 93.0343 304.586 92.3824 305.281C91.5676 306.144 91.7835 307.597 92.4884 308.537C93.1932 309.476 94.2607 310.087 95.2427 310.742C96.0329 311.211 96.707 311.852 97.2146 312.618C97.274 312.725 97.3231 312.839 97.3613 312.955H103.306C104.649 312.284 105.895 311.434 107.009 310.429Z" fill="#F14444"/>
<path d="M59.5715 316.845C59.5715 316.845 53.8673 297.436 60.643 283.146C63.5319 277.172 64.4039 270.423 63.1284 263.912C62.4954 260.826 61.5817 257.804 60.3986 254.883" stroke="#535461" stroke-width="2" stroke-miterlimit="10"/>
<path d="M64.6319 245.854C64.6319 248.231 60.3171 255.132 60.3171 255.132C60.3171 255.132 56.0024 248.214 56.0024 245.854C56.0024 244.711 56.457 243.615 57.2661 242.807C58.0753 241.999 59.1728 241.545 60.3171 241.545C61.4615 241.545 62.559 241.999 63.3681 242.807C64.1773 243.615 64.6319 244.711 64.6319 245.854Z" fill="#F14444"/>
<path d="M71.762 259.03C70.4664 261.027 63.0917 264.478 63.0917 264.478C63.0917 264.478 63.2221 256.34 64.5178 254.35C65.1509 253.418 66.1245 252.77 67.23 252.546C68.3354 252.322 69.4849 252.539 70.432 253.151C71.3792 253.763 72.0488 254.72 72.2974 255.819C72.546 256.918 72.3538 258.07 71.762 259.03Z" fill="#F14444"/>
<path d="M71.4483 281.551C69.3214 282.621 61.2094 281.881 61.2094 281.881C61.2094 281.881 65.4386 274.931 67.5654 273.857C68.0726 273.589 68.6283 273.424 69.2 273.373C69.7717 273.322 70.3478 273.385 70.8947 273.559C71.4416 273.733 71.9482 274.014 72.3849 274.386C72.8216 274.758 73.1795 275.214 73.4379 275.726C73.6962 276.237 73.8496 276.796 73.8892 277.367C73.9288 277.939 73.8538 278.513 73.6685 279.056C73.4832 279.598 73.1914 280.098 72.8102 280.527C72.429 280.955 71.9659 281.304 71.4483 281.551Z" fill="#F14444"/>
<path d="M67.3698 298.535C65.4549 299.951 57.3347 300.57 57.3347 300.57C57.3347 300.57 60.3252 293.005 62.2239 291.589C62.6759 291.219 63.1985 290.945 63.76 290.783C64.3215 290.62 64.9101 290.574 65.4901 290.646C66.0701 290.717 66.6295 290.906 67.1343 291.2C67.6391 291.495 68.0788 291.888 68.4266 292.357C68.7745 292.826 69.0233 293.361 69.1579 293.929C69.2926 294.497 69.3102 295.087 69.2099 295.662C69.1096 296.237 68.8933 296.785 68.5742 297.274C68.2551 297.763 67.8398 298.183 67.3535 298.507L67.3698 298.535Z" fill="#F14444"/>
<path d="M54.0344 264.938C55.7415 266.598 63.7029 268.315 63.7029 268.315C63.7029 268.315 61.7512 260.417 60.0359 258.757C59.6332 258.346 59.152 258.019 58.621 257.797C58.0899 257.574 57.5196 257.46 56.9437 257.461C56.3677 257.463 55.7979 257.579 55.2677 257.803C54.7374 258.028 54.2576 258.356 53.8563 258.769C53.4551 259.181 53.1407 259.67 52.9316 260.206C52.7225 260.742 52.6229 261.314 52.6387 261.889C52.6545 262.464 52.7855 263.03 53.0238 263.553C53.2621 264.077 53.6029 264.548 54.0262 264.938H54.0344Z" fill="#F14444"/>
<path d="M49.5241 284.863C51.6509 285.933 59.763 285.197 59.763 285.197C59.763 285.197 55.5379 278.243 53.407 277.173C52.9013 276.918 52.3504 276.766 51.7857 276.724C51.221 276.682 50.6536 276.751 50.1158 276.928C49.5779 277.105 49.0803 277.386 48.6513 277.755C48.2222 278.124 47.8702 278.574 47.6152 279.079C47.3603 279.584 47.2074 280.134 47.1653 280.698C47.1233 281.262 47.1929 281.829 47.3701 282.366C47.5474 282.903 47.8288 283.4 48.1984 283.829C48.568 284.257 49.0184 284.609 49.5241 284.863Z" fill="#F14444"/>
<path d="M47.7884 304.834C49.7034 306.246 57.8236 306.868 57.8236 306.868C57.8236 306.868 54.833 299.3 52.9343 297.884C52.0129 297.27 50.8904 297.034 49.7992 297.224C48.708 297.414 47.7318 298.015 47.0726 298.904C46.4134 299.793 46.1217 300.901 46.258 301.999C46.3943 303.097 46.9481 304.1 47.8047 304.801L47.7884 304.834Z" fill="#F14444"/>
<path d="M64.6319 245.854C64.6319 248.231 60.3171 255.132 60.3171 255.132C60.3171 255.132 56.0024 248.214 56.0024 245.854C56.0024 244.711 56.457 243.615 57.2661 242.807C58.0753 241.999 59.1728 241.545 60.3171 241.545C61.4615 241.545 62.559 241.999 63.3681 242.807C64.1773 243.615 64.6319 244.711 64.6319 245.854Z" fill="#F14444"/>
<path d="M71.762 259.03C70.4664 261.027 63.0917 264.478 63.0917 264.478C63.0917 264.478 63.2221 256.34 64.5178 254.35C65.1509 253.418 66.1245 252.77 67.23 252.546C68.3354 252.322 69.4849 252.539 70.432 253.151C71.3792 253.763 72.0488 254.72 72.2974 255.819C72.546 256.918 72.3538 258.07 71.762 259.03Z" fill="#F14444"/>
<path d="M71.4483 281.551C69.3214 282.621 61.2094 281.881 61.2094 281.881C61.2094 281.881 65.4386 274.931 67.5654 273.857C68.0726 273.589 68.6283 273.424 69.2 273.373C69.7717 273.322 70.3478 273.385 70.8947 273.559C71.4416 273.733 71.9482 274.014 72.3849 274.386C72.8216 274.758 73.1795 275.214 73.4379 275.726C73.6962 276.237 73.8496 276.796 73.8892 277.367C73.9288 277.939 73.8538 278.513 73.6685 279.056C73.4832 279.598 73.1914 280.098 72.8102 280.527C72.429 280.955 71.9659 281.304 71.4483 281.551Z" fill="#F14444"/>
<path d="M67.3698 298.535C65.4549 299.951 57.3347 300.57 57.3347 300.57C57.3347 300.57 60.3252 293.005 62.2239 291.589C62.6759 291.219 63.1985 290.945 63.76 290.783C64.3215 290.62 64.9101 290.574 65.4901 290.646C66.0701 290.717 66.6295 290.906 67.1343 291.2C67.6391 291.495 68.0788 291.888 68.4266 292.357C68.7745 292.826 69.0233 293.361 69.1579 293.929C69.2926 294.497 69.3102 295.087 69.2099 295.662C69.1096 296.237 68.8933 296.785 68.5742 297.274C68.2551 297.763 67.8398 298.183 67.3535 298.507L67.3698 298.535Z" fill="#F14444"/>
<path d="M54.0344 264.938C55.7415 266.598 63.7029 268.315 63.7029 268.315C63.7029 268.315 61.7512 260.417 60.0359 258.757C59.6332 258.346 59.152 258.019 58.621 257.797C58.0899 257.574 57.5196 257.46 56.9437 257.461C56.3677 257.463 55.7979 257.579 55.2677 257.803C54.7374 258.028 54.2576 258.356 53.8563 258.769C53.4551 259.181 53.1407 259.67 52.9316 260.206C52.7225 260.742 52.6229 261.314 52.6387 261.889C52.6545 262.464 52.7855 263.03 53.0238 263.553C53.2621 264.077 53.6029 264.548 54.0262 264.938H54.0344Z" fill="#F14444"/>
<path d="M49.5241 284.863C51.6509 285.933 59.763 285.197 59.763 285.197C59.763 285.197 55.5379 278.243 53.407 277.173C52.9013 276.918 52.3504 276.766 51.7857 276.724C51.221 276.682 50.6536 276.751 50.1158 276.928C49.5779 277.105 49.0803 277.386 48.6513 277.755C48.2222 278.124 47.8702 278.574 47.6152 279.079C47.3603 279.584 47.2074 280.134 47.1653 280.698C47.1233 281.262 47.1929 281.829 47.3701 282.366C47.5474 282.903 47.8288 283.4 48.1984 283.829C48.568 284.257 49.0184 284.609 49.5241 284.863Z" fill="#F14444"/>
<path d="M47.7884 304.834C49.7034 306.246 57.8236 306.868 57.8236 306.868C57.8236 306.868 54.833 299.3 52.9343 297.884C52.0129 297.27 50.8904 297.034 49.7992 297.224C48.708 297.414 47.7318 298.015 47.0726 298.904C46.4134 299.793 46.1217 300.901 46.258 301.999C46.3943 303.097 46.9481 304.1 47.8047 304.801L47.7884 304.834Z" fill="#F14444"/>
<path d="M46.0405 315.625C46.0405 315.625 53.0117 314.241 54.8696 312.398C56.7276 310.555 65.0963 307.328 66.0253 309.631C66.9543 311.934 78.5744 319.771 70.6742 321.154C62.7739 322.538 52.0828 322.998 49.7563 322.074C47.4298 321.15 46.0405 315.625 46.0405 315.625Z" fill="#A8A8A8"/>
<path opacity="0.2" d="M70.6742 320.296C62.7699 321.679 52.0828 322.139 49.7563 321.219C47.988 320.515 46.7576 317.15 46.2727 315.576L46.0405 315.625C46.0405 315.625 47.4339 321.154 49.7563 322.074C52.0787 322.993 62.7699 322.538 70.6742 321.154C72.9517 320.747 73.6036 319.816 73.3592 318.632C73.1554 319.405 72.3691 319.995 70.6742 320.296Z" fill="black"/>
</g>
<defs>
<linearGradient id="paint0_linear" x1="209.174" y1="328.104" x2="209.174" y2="55.8586" gradientUnits="userSpaceOnUse">
<stop stop-color="#808080" stop-opacity="0.25"/>
<stop offset="0.54" stop-color="#808080" stop-opacity="0.12"/>
<stop offset="1" stop-color="#808080" stop-opacity="0.1"/>
</linearGradient>
<clipPath id="clip0">
<rect width="447" height="334" fill="white"/>
</clipPath>
</defs>
</svg>
