<svg width="870" height="814" viewBox="0 0 870 814" fill="none" xmlns="http://www.w3.org/2000/svg">
<path d="M0 -4H771C783.527 117.92 916 528.5 705 696C494 863.5 0 696 0 696V-4Z" fill="#FFEEF0"/>
<path d="M0 -6.5C-1.38071 -6.5 -2.5 -5.38071 -2.5 -4V730.849C-2.5 731.921 -1.81718 732.873 -0.802379 733.217L0 730.849C-0.802379 733.217 -0.799897 733.218 -0.795442 733.219L-0.776662 733.226L-0.703717 733.25C-0.63941 733.272 -0.543812 733.304 -0.417313 733.347C-0.164314 733.431 0.212291 733.557 0.70939 733.722C1.70359 734.051 3.17977 734.536 5.11303 735.16C8.97952 736.409 14.6744 738.216 21.9985 740.453C36.6463 744.925 57.8121 751.116 83.9011 757.994C136.074 771.749 207.961 788.257 286.799 799.265C365.624 810.271 451.48 815.789 531.563 807.518C611.623 799.25 686.139 777.179 742.065 732.808C853.913 644.068 874.449 491.193 865.713 345.332C861.34 272.309 849.617 200.817 838.178 139.629C834.819 121.663 831.49 104.606 828.379 88.6674C820.874 50.2159 814.638 18.2687 812.322 -4.25566C812.191 -5.53066 811.117 -6.5 809.835 -6.5H0Z" stroke="#FF748F" stroke-width="5" stroke-linejoin="round"/>
</svg>
